<svg version="1.1" viewBox="0.0 0.0 901.0 481.0" fill="none" stroke="none" stroke-linecap="square" stroke-miterlimit="10" width="901" height="481" xmlns:xlink="http://www.w3.org/1999/xlink" xmlns="http://www.w3.org/2000/svg"><path fill="#ffffff" d="M0 0L901.0 0L901.0 481.0L0 481.0L0 0Z" fill-rule="nonzero"/><path stroke="#cccccc" stroke-width="1.0" stroke-linecap="butt" d="M236.5 101.5L236.5 398.5" fill-rule="nonzero"/><path stroke="#cccccc" stroke-width="1.0" stroke-linecap="butt" d="M392.5 101.5L392.5 398.5" fill-rule="nonzero"/><path stroke="#cccccc" stroke-width="1.0" stroke-linecap="butt" d="M547.5 101.5L547.5 398.5" fill-rule="nonzero"/><path stroke="#cccccc" stroke-width="1.0" stroke-linecap="butt" d="M702.5 101.5L702.5 398.5" fill-rule="nonzero"/><path stroke="#cccccc" stroke-width="1.0" stroke-linecap="butt" d="M858.5 101.5L858.5 398.5" fill-rule="nonzero"/><path stroke="#e6e6e6" stroke-width="1.0" stroke-linecap="butt" d="M133.5 101.5L133.5 398.5" fill-rule="nonzero"/><path stroke="#e6e6e6" stroke-width="1.0" stroke-linecap="butt" d="M184.5 101.5L184.5 398.5" fill-rule="nonzero"/><path stroke="#e6e6e6" stroke-width="1.0" stroke-linecap="butt" d="M288.5 101.5L288.5 398.5" fill-rule="nonzero"/><path stroke="#e6e6e6" stroke-width="1.0" stroke-linecap="butt" d="M340.5 101.5L340.5 398.5" fill-rule="nonzero"/><path stroke="#e6e6e6" stroke-width="1.0" stroke-linecap="butt" d="M443.5 101.5L443.5 398.5" fill-rule="nonzero"/><path stroke="#e6e6e6" stroke-width="1.0" stroke-linecap="butt" d="M495.5 101.5L495.5 398.5" fill-rule="nonzero"/><path stroke="#e6e6e6" stroke-width="1.0" stroke-linecap="butt" d="M599.5 101.5L599.5 398.5" fill-rule="nonzero"/><path stroke="#e6e6e6" stroke-width="1.0" stroke-linecap="butt" d="M651.5 101.5L651.5 398.5" fill-rule="nonzero"/><path stroke="#e6e6e6" stroke-width="1.0" stroke-linecap="butt" d="M754.5 101.5L754.5 398.5" fill-rule="nonzero"/><path stroke="#e6e6e6" stroke-width="1.0" stroke-linecap="butt" d="M806.5 101.5L806.5 398.5" fill-rule="nonzero"/><path stroke="#333333" stroke-width="1.0" stroke-linecap="butt" d="M121.5 398.5L876.5 398.5" fill-rule="nonzero"/><path stroke="#cccccc" stroke-width="1.0" stroke-linecap="butt" d="M121.5 324.5L876.5 324.5" fill-rule="nonzero"/><path stroke="#cccccc" stroke-width="1.0" stroke-linecap="butt" d="M121.5 250.5L876.5 250.5" fill-rule="nonzero"/><path stroke="#cccccc" stroke-width="1.0" stroke-linecap="butt" d="M121.5 175.5L876.5 175.5" fill-rule="nonzero"/><path stroke="#cccccc" stroke-width="1.0" stroke-linecap="butt" d="M121.5 101.5L876.5 101.5" fill-rule="nonzero"/><path stroke="#e6e6e6" stroke-width="1.0" stroke-linecap="butt" d="M121.5 374.5L876.5 374.5" fill-rule="nonzero"/><path stroke="#e6e6e6" stroke-width="1.0" stroke-linecap="butt" d="M121.5 349.5L876.5 349.5" fill-rule="nonzero"/><path stroke="#e6e6e6" stroke-width="1.0" stroke-linecap="butt" d="M121.5 299.5L876.5 299.5" fill-rule="nonzero"/><path stroke="#e6e6e6" stroke-width="1.0" stroke-linecap="butt" d="M121.5 274.5L876.5 274.5" fill-rule="nonzero"/><path stroke="#e6e6e6" stroke-width="1.0" stroke-linecap="butt" d="M121.5 225.5L876.5 225.5" fill-rule="nonzero"/><path stroke="#e6e6e6" stroke-width="1.0" stroke-linecap="butt" d="M121.5 200.5L876.5 200.5" fill-rule="nonzero"/><path stroke="#e6e6e6" stroke-width="1.0" stroke-linecap="butt" d="M121.5 150.5L876.5 150.5" fill-rule="nonzero"/><path stroke="#e6e6e6" stroke-width="1.0" stroke-linecap="butt" d="M121.5 125.5L876.5 125.5" fill-rule="nonzero"/><path stroke="#000000" stroke-width="1.0" stroke-linecap="butt" d="M876.5 398.5L121.5 398.5" fill-rule="nonzero"/><path stroke="#000000" stroke-width="1.0" stroke-linecap="butt" d="M121.5 398.5L121.5 101.5" fill-rule="nonzero"/><clipPath id="id_0"><path d="M121.05 101.11667L876.95 101.11667L876.95 398.95L121.05 398.95L121.05 101.11667Z" clip-rule="nonzero"/></clipPath><path stroke="#4285f4" stroke-width="2.0" stroke-linecap="butt" clip-path="url(#id_0)" d="M121.05 365.09305L160.83421 372.39807L200.61842 373.77228L240.40263 374.3404L280.18683 371.67142L319.97104 373.90634L359.75525 375.34406L399.53946 371.6907L439.32367 376.72968L479.10788 376.4503L518.8921 378.0884L558.67633 381.9292L598.4605 381.01492L638.24475 381.42056L678.02893 382.1464L717.8132 382.24673L757.59735 382.97394L797.3816 383.0226L837.1658 383.29947L876.95 383.06934" fill-rule="nonzero"/><path stroke="#ea4335" stroke-width="2.0" stroke-linecap="butt" clip-path="url(#id_0)" d="M121.05 316.3099L160.83421 251.04497L200.61842 230.2411L240.40263 233.70116L280.18683 216.89714L319.97104 197.70174L359.75525 231.6885L399.53946 163.04391L439.32367 164.09685L479.10788 192.42403L518.8921 179.29268L558.67633 167.10625L598.4605 173.70895L638.24475 179.06662L678.02893 185.63953L717.8132 180.12248L757.59735 186.7982L797.3816 189.94196L837.1658 193.23718L876.95 194.94257" fill-rule="nonzero"/><path stroke="#fbbc04" stroke-width="2.0" stroke-linecap="butt" clip-path="url(#id_0)" d="M121.05 392.72186L160.83421 227.28183L200.61842 392.66122L240.40263 143.70409L280.18683 163.78189L319.97104 144.13512L359.75525 169.31761L399.53946 138.05255L439.32367 148.9807L479.10788 146.17517L518.8921 164.43507L558.67633 161.19469L598.4605 157.36804L638.24475 169.93167L678.02893 169.82774L717.8132 176.60915L757.59735 172.69617L797.3816 168.89096L837.1658 171.92787L876.95 180.97685" fill-rule="nonzero"/><path fill="#000000" fill-opacity="0.0" clip-path="url(#id_0)" d="M124.05 365.09305C124.05 366.7499 122.706856 368.09305 121.05 368.09305C119.39314 368.09305 118.05 366.7499 118.05 365.09305C118.05 363.4362 119.39314 362.09305 121.05 362.09305C122.706856 362.09305 124.05 363.4362 124.05 365.09305Z" fill-rule="nonzero"/><path fill="#000000" fill-opacity="0.0" clip-path="url(#id_0)" d="M163.83421 372.39807C163.83421 374.05493 162.49106 375.39807 160.83421 375.39807C159.17735 375.39807 157.83421 374.05493 157.83421 372.39807C157.83421 370.7412 159.17735 369.39807 160.83421 369.39807C162.49106 369.39807 163.83421 370.7412 163.83421 372.39807Z" fill-rule="nonzero"/><path fill="#000000" fill-opacity="0.0" clip-path="url(#id_0)" d="M203.61842 373.77228C203.61842 375.42914 202.27527 376.77228 200.61842 376.77228C198.96156 376.77228 197.61842 375.42914 197.61842 373.77228C197.61842 372.11545 198.96156 370.77228 200.61842 370.77228C202.27527 370.77228 203.61842 372.11545 203.61842 373.77228Z" fill-rule="nonzero"/><path fill="#000000" fill-opacity="0.0" clip-path="url(#id_0)" d="M243.40263 374.3404C243.40263 375.99722 242.05948 377.3404 240.40263 377.3404C238.74577 377.3404 237.40263 375.99722 237.40263 374.3404C237.40263 372.68353 238.74577 371.3404 240.40263 371.3404C242.05948 371.3404 243.40263 372.68353 243.40263 374.3404Z" fill-rule="nonzero"/><path fill="#000000" fill-opacity="0.0" clip-path="url(#id_0)" d="M283.18683 371.67142C283.18683 373.32828 281.8437 374.67142 280.18683 374.67142C278.53 374.67142 277.18683 373.32828 277.18683 371.67142C277.18683 370.01456 278.53 368.67142 280.18683 368.67142C281.8437 368.67142 283.18683 370.01456 283.18683 371.67142Z" fill-rule="nonzero"/><path fill="#000000" fill-opacity="0.0" clip-path="url(#id_0)" d="M322.97104 373.90634C322.97104 375.56317 321.6279 376.90634 319.97104 376.90634C318.3142 376.90634 316.97104 375.56317 316.97104 373.90634C316.97104 372.24948 318.3142 370.90634 319.97104 370.90634C321.6279 370.90634 322.97104 372.24948 322.97104 373.90634Z" fill-rule="nonzero"/><path fill="#000000" fill-opacity="0.0" clip-path="url(#id_0)" d="M362.75525 375.34406C362.75525 377.00092 361.4121 378.34406 359.75525 378.34406C358.09842 378.34406 356.75525 377.00092 356.75525 375.34406C356.75525 373.68723 358.09842 372.34406 359.75525 372.34406C361.4121 372.34406 362.75525 373.68723 362.75525 375.34406Z" fill-rule="nonzero"/><path fill="#000000" fill-opacity="0.0" clip-path="url(#id_0)" d="M402.53946 371.6907C402.53946 373.34756 401.19632 374.6907 399.53946 374.6907C397.88263 374.6907 396.53946 373.34756 396.53946 371.6907C396.53946 370.03384 397.88263 368.6907 399.53946 368.6907C401.19632 368.6907 402.53946 370.03384 402.53946 371.6907Z" fill-rule="nonzero"/><path fill="#000000" fill-opacity="0.0" clip-path="url(#id_0)" d="M442.32367 376.72968C442.32367 378.38654 440.98053 379.72968 439.32367 379.72968C437.66684 379.72968 436.32367 378.38654 436.32367 376.72968C436.32367 375.0728 437.66684 373.72968 439.32367 373.72968C440.98053 373.72968 442.32367 375.0728 442.32367 376.72968Z" fill-rule="nonzero"/><path fill="#000000" fill-opacity="0.0" clip-path="url(#id_0)" d="M482.10788 376.4503C482.10788 378.10712 480.76474 379.4503 479.10788 379.4503C477.45105 379.4503 476.10788 378.10712 476.10788 376.4503C476.10788 374.79343 477.45105 373.4503 479.10788 373.4503C480.76474 373.4503 482.10788 374.79343 482.10788 376.4503Z" fill-rule="nonzero"/><path fill="#000000" fill-opacity="0.0" clip-path="url(#id_0)" d="M521.8921 378.0884C521.8921 379.74527 520.54895 381.0884 518.8921 381.0884C517.2352 381.0884 515.8921 379.74527 515.8921 378.0884C515.8921 376.43158 517.2352 375.0884 518.8921 375.0884C520.54895 375.0884 521.8921 376.43158 521.8921 378.0884Z" fill-rule="nonzero"/><path fill="#000000" fill-opacity="0.0" clip-path="url(#id_0)" d="M561.67633 381.9292C561.67633 383.58606 560.3332 384.9292 558.67633 384.9292C557.0195 384.9292 555.67633 383.58606 555.67633 381.9292C555.67633 380.27234 557.0195 378.9292 558.67633 378.9292C560.3332 378.9292 561.67633 380.27234 561.67633 381.9292Z" fill-rule="nonzero"/><path fill="#000000" fill-opacity="0.0" clip-path="url(#id_0)" d="M601.4605 381.01492C601.4605 382.67178 600.1174 384.01492 598.4605 384.01492C596.80365 384.01492 595.4605 382.67178 595.4605 381.01492C595.4605 379.35806 596.80365 378.01492 598.4605 378.01492C600.1174 378.01492 601.4605 379.35806 601.4605 381.01492Z" fill-rule="nonzero"/><path fill="#000000" fill-opacity="0.0" clip-path="url(#id_0)" d="M641.24475 381.42056C641.24475 383.07742 639.9016 384.42056 638.24475 384.42056C636.5879 384.42056 635.24475 383.07742 635.24475 381.42056C635.24475 379.7637 636.5879 378.42056 638.24475 378.42056C639.9016 378.42056 641.24475 379.7637 641.24475 381.42056Z" fill-rule="nonzero"/><path fill="#000000" fill-opacity="0.0" clip-path="url(#id_0)" d="M681.02893 382.1464C681.02893 383.80322 679.6858 385.1464 678.02893 385.1464C676.3721 385.1464 675.02893 383.80322 675.02893 382.1464C675.02893 380.48953 676.3721 379.1464 678.02893 379.1464C679.6858 379.1464 681.02893 380.48953 681.02893 382.1464Z" fill-rule="nonzero"/><path fill="#000000" fill-opacity="0.0" clip-path="url(#id_0)" d="M720.8132 382.24673C720.8132 383.9036 719.47003 385.24673 717.8132 385.24673C716.1563 385.24673 714.8132 383.9036 714.8132 382.24673C714.8132 380.58987 716.1563 379.24673 717.8132 379.24673C719.47003 379.24673 720.8132 380.58987 720.8132 382.24673Z" fill-rule="nonzero"/><path fill="#000000" fill-opacity="0.0" clip-path="url(#id_0)" d="M760.59735 382.97394C760.59735 384.6308 759.2542 385.97394 757.59735 385.97394C755.9405 385.97394 754.59735 384.6308 754.59735 382.97394C754.59735 381.31708 755.9405 379.97394 757.59735 379.97394C759.2542 379.97394 760.59735 381.31708 760.59735 382.97394Z" fill-rule="nonzero"/><path fill="#000000" fill-opacity="0.0" clip-path="url(#id_0)" d="M800.3816 383.0226C800.3816 384.67947 799.03845 386.0226 797.3816 386.0226C795.72473 386.0226 794.3816 384.67947 794.3816 383.0226C794.3816 381.36575 795.72473 380.0226 797.3816 380.0226C799.03845 380.0226 800.3816 381.36575 800.3816 383.0226Z" fill-rule="nonzero"/><path fill="#000000" fill-opacity="0.0" clip-path="url(#id_0)" d="M840.1658 383.29947C840.1658 384.95633 838.82263 386.29947 837.1658 386.29947C835.5089 386.29947 834.1658 384.95633 834.1658 383.29947C834.1658 381.6426 835.5089 380.29947 837.1658 380.29947C838.82263 380.29947 840.1658 381.6426 840.1658 383.29947Z" fill-rule="nonzero"/><path fill="#000000" fill-opacity="0.0" clip-path="url(#id_0)" d="M879.95 383.06934C879.95 384.72617 878.6069 386.06934 876.95 386.06934C875.29315 386.06934 873.95 384.72617 873.95 383.06934C873.95 381.41248 875.29315 380.06934 876.95 380.06934C878.6069 380.06934 879.95 381.41248 879.95 383.06934Z" fill-rule="nonzero"/><path fill="#000000" fill-opacity="0.0" clip-path="url(#id_0)" d="M124.05 316.3099C124.05 317.96674 122.706856 319.3099 121.05 319.3099C119.39314 319.3099 118.05 317.96674 118.05 316.3099C118.05 314.65305 119.39314 313.3099 121.05 313.3099C122.706856 313.3099 124.05 314.65305 124.05 316.3099Z" fill-rule="nonzero"/><path fill="#000000" fill-opacity="0.0" clip-path="url(#id_0)" d="M163.83421 251.04497C163.83421 252.70183 162.49106 254.04497 160.83421 254.04497C159.17735 254.04497 157.83421 252.70183 157.83421 251.04497C157.83421 249.38812 159.17735 248.04497 160.83421 248.04497C162.49106 248.04497 163.83421 249.38812 163.83421 251.04497Z" fill-rule="nonzero"/><path fill="#000000" fill-opacity="0.0" clip-path="url(#id_0)" d="M203.61842 230.2411C203.61842 231.89795 202.27527 233.2411 200.61842 233.2411C198.96156 233.2411 197.61842 231.89795 197.61842 230.2411C197.61842 228.58424 198.96156 227.2411 200.61842 227.2411C202.27527 227.2411 203.61842 228.58424 203.61842 230.2411Z" fill-rule="nonzero"/><path fill="#000000" fill-opacity="0.0" clip-path="url(#id_0)" d="M243.40263 233.70116C243.40263 235.358 242.05948 236.70116 240.40263 236.70116C238.74577 236.70116 237.40263 235.358 237.40263 233.70116C237.40263 232.0443 238.74577 230.70116 240.40263 230.70116C242.05948 230.70116 243.40263 232.0443 243.40263 233.70116Z" fill-rule="nonzero"/><path fill="#000000" fill-opacity="0.0" clip-path="url(#id_0)" d="M283.18683 216.89714C283.18683 218.554 281.8437 219.89714 280.18683 219.89714C278.53 219.89714 277.18683 218.554 277.18683 216.89714C277.18683 215.2403 278.53 213.89714 280.18683 213.89714C281.8437 213.89714 283.18683 215.2403 283.18683 216.89714Z" fill-rule="nonzero"/><path fill="#000000" fill-opacity="0.0" clip-path="url(#id_0)" d="M322.97104 197.70174C322.97104 199.35858 321.6279 200.70174 319.97104 200.70174C318.3142 200.70174 316.97104 199.35858 316.97104 197.70174C316.97104 196.04488 318.3142 194.70174 319.97104 194.70174C321.6279 194.70174 322.97104 196.04488 322.97104 197.70174Z" fill-rule="nonzero"/><path fill="#000000" fill-opacity="0.0" clip-path="url(#id_0)" d="M362.75525 231.6885C362.75525 233.34535 361.4121 234.6885 359.75525 234.6885C358.09842 234.6885 356.75525 233.34535 356.75525 231.6885C356.75525 230.03165 358.09842 228.6885 359.75525 228.6885C361.4121 228.6885 362.75525 230.03165 362.75525 231.6885Z" fill-rule="nonzero"/><path fill="#000000" fill-opacity="0.0" clip-path="url(#id_0)" d="M402.53946 163.04391C402.53946 164.70076 401.19632 166.04391 399.53946 166.04391C397.88263 166.04391 396.53946 164.70076 396.53946 163.04391C396.53946 161.38705 397.88263 160.04391 399.53946 160.04391C401.19632 160.04391 402.53946 161.38705 402.53946 163.04391Z" fill-rule="nonzero"/><path fill="#000000" fill-opacity="0.0" clip-path="url(#id_0)" d="M442.32367 164.09685C442.32367 165.75371 440.98053 167.09685 439.32367 167.09685C437.66684 167.09685 436.32367 165.75371 436.32367 164.09685C436.32367 162.44 437.66684 161.09685 439.32367 161.09685C440.98053 161.09685 442.32367 162.44 442.32367 164.09685Z" fill-rule="nonzero"/><path fill="#000000" fill-opacity="0.0" clip-path="url(#id_0)" d="M482.10788 192.42403C482.10788 194.08089 480.76474 195.42403 479.10788 195.42403C477.45105 195.42403 476.10788 194.08089 476.10788 192.42403C476.10788 190.76717 477.45105 189.42403 479.10788 189.42403C480.76474 189.42403 482.10788 190.76717 482.10788 192.42403Z" fill-rule="nonzero"/><path fill="#000000" fill-opacity="0.0" clip-path="url(#id_0)" d="M521.8921 179.29268C521.8921 180.94954 520.54895 182.29268 518.8921 182.29268C517.2352 182.29268 515.8921 180.94954 515.8921 179.29268C515.8921 177.63583 517.2352 176.29268 518.8921 176.29268C520.54895 176.29268 521.8921 177.63583 521.8921 179.29268Z" fill-rule="nonzero"/><path fill="#000000" fill-opacity="0.0" clip-path="url(#id_0)" d="M561.67633 167.10625C561.67633 168.7631 560.3332 170.10625 558.67633 170.10625C557.0195 170.10625 555.67633 168.7631 555.67633 167.10625C555.67633 165.4494 557.0195 164.10625 558.67633 164.10625C560.3332 164.10625 561.67633 165.4494 561.67633 167.10625Z" fill-rule="nonzero"/><path fill="#000000" fill-opacity="0.0" clip-path="url(#id_0)" d="M601.4605 173.70895C601.4605 175.36581 600.1174 176.70895 598.4605 176.70895C596.80365 176.70895 595.4605 175.36581 595.4605 173.70895C595.4605 172.05211 596.80365 170.70895 598.4605 170.70895C600.1174 170.70895 601.4605 172.05211 601.4605 173.70895Z" fill-rule="nonzero"/><path fill="#000000" fill-opacity="0.0" clip-path="url(#id_0)" d="M641.24475 179.06662C641.24475 180.72348 639.9016 182.06662 638.24475 182.06662C636.5879 182.06662 635.24475 180.72348 635.24475 179.06662C635.24475 177.40976 636.5879 176.06662 638.24475 176.06662C639.9016 176.06662 641.24475 177.40976 641.24475 179.06662Z" fill-rule="nonzero"/><path fill="#000000" fill-opacity="0.0" clip-path="url(#id_0)" d="M681.02893 185.63953C681.02893 187.29639 679.6858 188.63953 678.02893 188.63953C676.3721 188.63953 675.02893 187.29639 675.02893 185.63953C675.02893 183.98267 676.3721 182.63953 678.02893 182.63953C679.6858 182.63953 681.02893 183.98267 681.02893 185.63953Z" fill-rule="nonzero"/><path fill="#000000" fill-opacity="0.0" clip-path="url(#id_0)" d="M720.8132 180.12248C720.8132 181.77933 719.47003 183.12248 717.8132 183.12248C716.1563 183.12248 714.8132 181.77933 714.8132 180.12248C714.8132 178.46562 716.1563 177.12248 717.8132 177.12248C719.47003 177.12248 720.8132 178.46562 720.8132 180.12248Z" fill-rule="nonzero"/><path fill="#000000" fill-opacity="0.0" clip-path="url(#id_0)" d="M760.59735 186.7982C760.59735 188.45506 759.2542 189.7982 757.59735 189.7982C755.9405 189.7982 754.59735 188.45506 754.59735 186.7982C754.59735 185.14136 755.9405 183.7982 757.59735 183.7982C759.2542 183.7982 760.59735 185.14136 760.59735 186.7982Z" fill-rule="nonzero"/><path fill="#000000" fill-opacity="0.0" clip-path="url(#id_0)" d="M800.3816 189.94196C800.3816 191.59882 799.03845 192.94196 797.3816 192.94196C795.72473 192.94196 794.3816 191.59882 794.3816 189.94196C794.3816 188.28511 795.72473 186.94196 797.3816 186.94196C799.03845 186.94196 800.3816 188.28511 800.3816 189.94196Z" fill-rule="nonzero"/><path fill="#000000" fill-opacity="0.0" clip-path="url(#id_0)" d="M840.1658 193.23718C840.1658 194.89404 838.82263 196.23718 837.1658 196.23718C835.5089 196.23718 834.1658 194.89404 834.1658 193.23718C834.1658 191.58032 835.5089 190.23718 837.1658 190.23718C838.82263 190.23718 840.1658 191.58032 840.1658 193.23718Z" fill-rule="nonzero"/><path fill="#000000" fill-opacity="0.0" clip-path="url(#id_0)" d="M879.95 194.94257C879.95 196.59943 878.6069 197.94257 876.95 197.94257C875.29315 197.94257 873.95 196.59943 873.95 194.94257C873.95 193.28572 875.29315 191.94257 876.95 191.94257C878.6069 191.94257 879.95 193.28572 879.95 194.94257Z" fill-rule="nonzero"/><path fill="#000000" fill-opacity="0.0" clip-path="url(#id_0)" d="M124.05 392.72186C124.05 394.37872 122.706856 395.72186 121.05 395.72186C119.39314 395.72186 118.05 394.37872 118.05 392.72186C118.05 391.065 119.39314 389.72186 121.05 389.72186C122.706856 389.72186 124.05 391.065 124.05 392.72186Z" fill-rule="nonzero"/><path fill="#000000" fill-opacity="0.0" clip-path="url(#id_0)" d="M163.83421 227.28183C163.83421 228.93869 162.49106 230.28183 160.83421 230.28183C159.17735 230.28183 157.83421 228.93869 157.83421 227.28183C157.83421 225.62498 159.17735 224.28183 160.83421 224.28183C162.49106 224.28183 163.83421 225.62498 163.83421 227.28183Z" fill-rule="nonzero"/><path fill="#000000" fill-opacity="0.0" clip-path="url(#id_0)" d="M203.61842 392.66122C203.61842 394.31808 202.27527 395.66122 200.61842 395.66122C198.96156 395.66122 197.61842 394.31808 197.61842 392.66122C197.61842 391.0044 198.96156 389.66122 200.61842 389.66122C202.27527 389.66122 203.61842 391.0044 203.61842 392.66122Z" fill-rule="nonzero"/><path fill="#000000" fill-opacity="0.0" clip-path="url(#id_0)" d="M243.40263 143.70409C243.40263 145.36093 242.05948 146.70409 240.40263 146.70409C238.74577 146.70409 237.40263 145.36093 237.40263 143.70409C237.40263 142.04723 238.74577 140.70409 240.40263 140.70409C242.05948 140.70409 243.40263 142.04723 243.40263 143.70409Z" fill-rule="nonzero"/><path fill="#000000" fill-opacity="0.0" clip-path="url(#id_0)" d="M283.18683 163.78189C283.18683 165.43875 281.8437 166.78189 280.18683 166.78189C278.53 166.78189 277.18683 165.43875 277.18683 163.78189C277.18683 162.12505 278.53 160.78189 280.18683 160.78189C281.8437 160.78189 283.18683 162.12505 283.18683 163.78189Z" fill-rule="nonzero"/><path fill="#000000" fill-opacity="0.0" clip-path="url(#id_0)" d="M322.97104 144.13512C322.97104 145.79198 321.6279 147.13512 319.97104 147.13512C318.3142 147.13512 316.97104 145.79198 316.97104 144.13512C316.97104 142.47826 318.3142 141.13512 319.97104 141.13512C321.6279 141.13512 322.97104 142.47826 322.97104 144.13512Z" fill-rule="nonzero"/><path fill="#000000" fill-opacity="0.0" clip-path="url(#id_0)" d="M362.75525 169.31761C362.75525 170.97447 361.4121 172.31761 359.75525 172.31761C358.09842 172.31761 356.75525 170.97447 356.75525 169.31761C356.75525 167.66075 358.09842 166.31761 359.75525 166.31761C361.4121 166.31761 362.75525 167.66075 362.75525 169.31761Z" fill-rule="nonzero"/><path fill="#000000" fill-opacity="0.0" clip-path="url(#id_0)" d="M402.53946 138.05255C402.53946 139.7094 401.19632 141.05255 399.53946 141.05255C397.88263 141.05255 396.53946 139.7094 396.53946 138.05255C396.53946 136.39569 397.88263 135.05255 399.53946 135.05255C401.19632 135.05255 402.53946 136.39569 402.53946 138.05255Z" fill-rule="nonzero"/><path fill="#000000" fill-opacity="0.0" clip-path="url(#id_0)" d="M442.32367 148.9807C442.32367 150.63756 440.98053 151.9807 439.32367 151.9807C437.66684 151.9807 436.32367 150.63756 436.32367 148.9807C436.32367 147.32384 437.66684 145.9807 439.32367 145.9807C440.98053 145.9807 442.32367 147.32384 442.32367 148.9807Z" fill-rule="nonzero"/><path fill="#000000" fill-opacity="0.0" clip-path="url(#id_0)" d="M482.10788 146.17517C482.10788 147.83203 480.76474 149.17517 479.10788 149.17517C477.45105 149.17517 476.10788 147.83203 476.10788 146.17517C476.10788 144.51833 477.45105 143.17517 479.10788 143.17517C480.76474 143.17517 482.10788 144.51833 482.10788 146.17517Z" fill-rule="nonzero"/><path fill="#000000" fill-opacity="0.0" clip-path="url(#id_0)" d="M521.8921 164.43507C521.8921 166.09193 520.54895 167.43507 518.8921 167.43507C517.2352 167.43507 515.8921 166.09193 515.8921 164.43507C515.8921 162.77823 517.2352 161.43507 518.8921 161.43507C520.54895 161.43507 521.8921 162.77823 521.8921 164.43507Z" fill-rule="nonzero"/><path fill="#000000" fill-opacity="0.0" clip-path="url(#id_0)" d="M561.67633 161.19469C561.67633 162.85155 560.3332 164.19469 558.67633 164.19469C557.0195 164.19469 555.67633 162.85155 555.67633 161.19469C555.67633 159.53783 557.0195 158.19469 558.67633 158.19469C560.3332 158.19469 561.67633 159.53783 561.67633 161.19469Z" fill-rule="nonzero"/><path fill="#000000" fill-opacity="0.0" clip-path="url(#id_0)" d="M601.4605 157.36804C601.4605 159.0249 600.1174 160.36804 598.4605 160.36804C596.80365 160.36804 595.4605 159.0249 595.4605 157.36804C595.4605 155.71118 596.80365 154.36804 598.4605 154.36804C600.1174 154.36804 601.4605 155.71118 601.4605 157.36804Z" fill-rule="nonzero"/><path fill="#000000" fill-opacity="0.0" clip-path="url(#id_0)" d="M641.24475 169.93167C641.24475 171.58853 639.9016 172.93167 638.24475 172.93167C636.5879 172.93167 635.24475 171.58853 635.24475 169.93167C635.24475 168.27483 636.5879 166.93167 638.24475 166.93167C639.9016 166.93167 641.24475 168.27483 641.24475 169.93167Z" fill-rule="nonzero"/><path fill="#000000" fill-opacity="0.0" clip-path="url(#id_0)" d="M681.02893 169.82774C681.02893 171.4846 679.6858 172.82774 678.02893 172.82774C676.3721 172.82774 675.02893 171.4846 675.02893 169.82774C675.02893 168.1709 676.3721 166.82774 678.02893 166.82774C679.6858 166.82774 681.02893 168.1709 681.02893 169.82774Z" fill-rule="nonzero"/><path fill="#000000" fill-opacity="0.0" clip-path="url(#id_0)" d="M720.8132 176.60915C720.8132 178.26599 719.47003 179.60915 717.8132 179.60915C716.1563 179.60915 714.8132 178.26599 714.8132 176.60915C714.8132 174.95229 716.1563 173.60915 717.8132 173.60915C719.47003 173.60915 720.8132 174.95229 720.8132 176.60915Z" fill-rule="nonzero"/><path fill="#000000" fill-opacity="0.0" clip-path="url(#id_0)" d="M760.59735 172.69617C760.59735 174.35303 759.2542 175.69617 757.59735 175.69617C755.9405 175.69617 754.59735 174.35303 754.59735 172.69617C754.59735 171.0393 755.9405 169.69617 757.59735 169.69617C759.2542 169.69617 760.59735 171.0393 760.59735 172.69617Z" fill-rule="nonzero"/><path fill="#000000" fill-opacity="0.0" clip-path="url(#id_0)" d="M800.3816 168.89096C800.3816 170.54782 799.03845 171.89096 797.3816 171.89096C795.72473 171.89096 794.3816 170.54782 794.3816 168.89096C794.3816 167.23412 795.72473 165.89096 797.3816 165.89096C799.03845 165.89096 800.3816 167.23412 800.3816 168.89096Z" fill-rule="nonzero"/><path fill="#000000" fill-opacity="0.0" clip-path="url(#id_0)" d="M840.1658 171.92787C840.1658 173.58472 838.82263 174.92787 837.1658 174.92787C835.5089 174.92787 834.1658 173.58472 834.1658 171.92787C834.1658 170.27101 835.5089 168.92787 837.1658 168.92787C838.82263 168.92787 840.1658 170.27101 840.1658 171.92787Z" fill-rule="nonzero"/><path fill="#000000" fill-opacity="0.0" clip-path="url(#id_0)" d="M879.95 180.97685C879.95 182.6337 878.6069 183.97685 876.95 183.97685C875.29315 183.97685 873.95 182.6337 873.95 180.97685C873.95 179.31999 875.29315 177.97685 876.95 177.97685C878.6069 177.97685 879.95 179.31999 879.95 180.97685Z" fill-rule="nonzero"/><path stroke="#000000" stroke-width="1.0" stroke-linecap="butt" d="M236.5 404.5L236.5 392.5" fill-rule="nonzero"/><path stroke="#000000" stroke-width="1.0" stroke-linecap="butt" d="M392.5 404.5L392.5 392.5" fill-rule="nonzero"/><path stroke="#000000" stroke-width="1.0" stroke-linecap="butt" d="M547.5 404.5L547.5 392.5" fill-rule="nonzero"/><path stroke="#000000" stroke-width="1.0" stroke-linecap="butt" d="M702.5 404.5L702.5 392.5" fill-rule="nonzero"/><path stroke="#000000" stroke-width="1.0" stroke-linecap="butt" d="M858.5 404.5L858.5 392.5" fill-rule="nonzero"/><path stroke="#000000" stroke-width="1.0" stroke-linecap="butt" d="M115.5 398.5L127.5 398.5" fill-rule="nonzero"/><path stroke="#000000" stroke-width="1.0" stroke-linecap="butt" d="M115.5 324.5L127.5 324.5" fill-rule="nonzero"/><path stroke="#000000" stroke-width="1.0" stroke-linecap="butt" d="M115.5 250.5L127.5 250.5" fill-rule="nonzero"/><path stroke="#000000" stroke-width="1.0" stroke-linecap="butt" d="M115.5 175.5L127.5 175.5" fill-rule="nonzero"/><path stroke="#000000" stroke-width="1.0" stroke-linecap="butt" d="M115.5 101.5L127.5 101.5" fill-rule="nonzero"/><path fill="#000000" d="M471.39062 453.95L471.39062 445.35626L473.10938 445.35626L475.14062 451.4344Q475.42188 452.29376 475.54688 452.71564Q475.6875 452.2469 476.0 451.34064L478.0625 445.35626L479.59375 445.35626L479.59375 453.95L478.5 453.95L478.5 446.7625L476.0 453.95L474.96875 453.95L472.48438 446.6375L472.48438 453.95L471.39062 453.95ZM484.35938 453.1844Q483.76562 453.6844 483.21875 453.8875Q482.6875 454.09064 482.0625 454.09064Q481.03125 454.09064 480.48438 453.59064Q479.9375 453.09064 479.9375 452.3094Q479.9375 451.85626 480.14062 451.48126Q480.34375 451.09064 480.6875 450.8719Q481.03125 450.6375 481.45312 450.52814Q481.75 450.4344 482.39062 450.35626Q483.65625 450.21564 484.26562 449.9969Q484.26562 449.77814 484.26562 449.73126Q484.26562 449.075 483.96875 448.8094Q483.5625 448.46564 482.76562 448.46564Q482.03125 448.46564 481.67188 448.73126Q481.3125 448.98126 481.14062 449.6375L480.10938 449.4969Q480.25 448.84064 480.57812 448.4344Q480.90625 448.02814 481.51562 447.8094Q482.125 447.59064 482.92188 447.59064Q483.71875 447.59064 484.21875 447.77814Q484.71875 447.96564 484.95312 448.2469Q485.1875 448.52814 485.28125 448.96564Q485.32812 449.23126 485.32812 449.9344L485.32812 451.34064Q485.32812 452.8094 485.39062 453.2Q485.46875 453.59064 485.67188 453.95L484.5625 453.95Q484.40625 453.6219 484.35938 453.1844ZM484.26562 450.825Q483.6875 451.0594 482.54688 451.23126Q481.89062 451.325 481.625 451.45Q481.35938 451.5594 481.20312 451.77814Q481.0625 451.9969 481.0625 452.27814Q481.0625 452.7 481.375 452.98126Q481.70312 453.2625 482.3125 453.2625Q482.92188 453.2625 483.39062 452.9969Q483.875 452.73126 484.09375 452.2625Q484.26562 451.90314 484.26562 451.21564L484.26562 450.825ZM489.59375 453.0125L489.75 453.9344Q489.29688 454.02814 488.95312 454.02814Q488.375 454.02814 488.0625 453.85626Q487.75 453.66876 487.60938 453.3719Q487.48438 453.075 487.48438 452.1219L487.48438 448.54376L486.71875 448.54376L486.71875 447.73126L487.48438 447.73126L487.48438 446.1844L488.53125 445.5594L488.53125 447.73126L489.59375 447.73126L489.59375 448.54376L488.53125 448.54376L488.53125 452.1844Q488.53125 452.6375 488.57812 452.7625Q488.64062 452.8875 488.76562 452.96564Q488.89062 453.04376 489.125 453.04376Q489.3125 453.04376 489.59375 453.0125ZM490.28125 453.95L490.28125 447.73126L491.23438 447.73126L491.23438 448.66876Q491.59375 448.0125 491.89062 447.8094Q492.20312 447.59064 492.57812 447.59064Q493.10938 447.59064 493.65625 447.91876L493.29688 448.90314Q492.90625 448.66876 492.53125 448.66876Q492.17188 448.66876 491.89062 448.8875Q491.625 449.09064 491.51562 449.46564Q491.32812 450.02814 491.32812 450.6844L491.32812 453.95L490.28125 453.95ZM494.29688 446.575L494.29688 445.35626L495.35938 445.35626L495.35938 446.575L494.29688 446.575ZM494.29688 453.95L494.29688 447.73126L495.35938 447.73126L495.35938 453.95L494.29688 453.95ZM496.59375 453.95L498.85938 450.71564L496.76562 447.73126L498.07812 447.73126L499.03125 449.1844Q499.29688 449.60626 499.46875 449.8875Q499.71875 449.4969 499.9375 449.2L500.98438 447.73126L502.25 447.73126L500.09375 450.65314L502.40625 453.95L501.125 453.95L499.84375 452.0125L499.5 451.4969L497.85938 453.95L496.59375 453.95ZM505.04688 451.1844L506.10938 451.09064Q506.1875 451.7469 506.46875 452.15314Q506.75 452.5594 507.32812 452.825Q507.92188 453.075 508.65625 453.075Q509.29688 453.075 509.79688 452.8875Q510.29688 452.6844 510.53125 452.35626Q510.78125 452.0125 510.78125 451.6219Q510.78125 451.21564 510.54688 450.91876Q510.3125 450.60626 509.78125 450.40314Q509.42188 450.2625 508.23438 449.98126Q507.0625 449.7 506.59375 449.45Q505.96875 449.1219 505.67188 448.65314Q505.375 448.16876 505.375 447.575Q505.375 446.9344 505.73438 446.3719Q506.10938 445.79376 506.8125 445.5125Q507.53125 445.21564 508.39062 445.21564Q509.34375 445.21564 510.07812 445.52814Q510.8125 445.825 511.20312 446.4344Q511.59375 447.02814 511.625 447.77814L510.53125 447.85626Q510.4375 447.04376 509.92188 446.6375Q509.42188 446.21564 508.4375 446.21564Q507.40625 446.21564 506.9375 446.59064Q506.46875 446.96564 506.46875 447.4969Q506.46875 447.96564 506.79688 448.2625Q507.125 448.5594 508.5 448.8719Q509.89062 449.1844 510.40625 449.41876Q511.15625 449.77814 511.51562 450.3094Q511.875 450.825 511.875 451.52814Q511.875 452.21564 511.48438 452.825Q511.09375 453.41876 510.35938 453.7625Q509.625 454.09064 508.70312 454.09064Q507.53125 454.09064 506.73438 453.7625Q505.95312 453.41876 505.5 452.73126Q505.0625 452.04376 505.04688 451.1844ZM513.2969 446.575L513.2969 445.35626L514.3594 445.35626L514.3594 446.575L513.2969 446.575ZM513.2969 453.95L513.2969 447.73126L514.3594 447.73126L514.3594 453.95L513.2969 453.95ZM515.7344 453.95L515.7344 453.09064L519.7031 448.54376Q519.0156 448.575 518.5 448.575L515.96875 448.575L515.96875 447.73126L521.0625 447.73126L521.0625 448.41876L517.6875 452.3719L517.03125 453.09064Q517.75 453.04376 518.3594 453.04376L521.25 453.04376L521.25 453.95L515.7344 453.95ZM525.5469 451.95L526.6406 452.075Q526.3906 453.02814 525.6875 453.5594Q524.9844 454.09064 523.90625 454.09064Q522.5469 454.09064 521.7344 453.2469Q520.9375 452.40314 520.9375 450.8875Q520.9375 449.325 521.75 448.46564Q522.5625 447.59064 523.84375 447.59064Q525.09375 447.59064 525.875 448.4344Q526.6719 449.27814 526.6719 450.825Q526.6719 450.91876 526.6719 451.10626L522.03125 451.10626Q522.09375 452.1375 522.6094 452.6844Q523.125 453.21564 523.90625 453.21564Q524.4844 453.21564 524.8906 452.91876Q525.3125 452.60626 525.5469 451.95ZM522.09375 450.2469L525.5625 450.2469Q525.5 449.45 525.1719 449.0594Q524.65625 448.45 523.8594 448.45Q523.125 448.45 522.625 448.9344Q522.1406 449.41876 522.09375 450.2469Z" fill-rule="nonzero"/><path fill="#000000" d="M35.05001 278.04895L26.456263 278.04895L26.456263 272.25208L27.471888 272.25208L27.471888 276.90833L30.128138 276.90833L30.128138 272.87708L31.143763 272.87708L31.143763 276.90833L35.05001 276.90833L35.05001 278.04895ZM35.05001 271.15833L26.456263 271.15833L26.456263 270.0177L34.034386 270.0177L34.034386 265.78333L35.05001 265.78333L35.05001 271.15833ZM30.862513 264.4552Q28.721888 264.4552 27.518763 263.31458Q26.300013 262.15833 26.300013 260.34583Q26.300013 259.1427 26.878138 258.18958Q27.440638 257.23645 28.456263 256.73645Q29.471888 256.23645 30.768763 256.23645Q32.065636 256.23645 33.096886 256.7677Q34.128136 257.29895 34.659386 258.2677Q35.190636 259.22083 35.190636 260.34583Q35.190636 261.56458 34.61251 262.5177Q34.01876 263.47083 33.01876 263.97083Q32.003136 264.4552 30.862513 264.4552ZM30.878138 263.28333Q32.440636 263.28333 33.33126 262.4552Q34.221886 261.61145 34.221886 260.34583Q34.221886 259.06458 33.33126 258.23645Q32.42501 257.40833 30.753138 257.40833Q29.706263 257.40833 28.925013 257.7677Q28.143763 258.11145 27.721888 258.79895Q27.284388 259.48645 27.284388 260.3302Q27.284388 261.53333 28.112513 262.40833Q28.940638 263.28333 30.878138 263.28333ZM35.05001 255.11147L26.456263 255.11147L26.456263 251.86147Q26.456263 251.01772 26.534388 250.56459Q26.643763 249.92397 26.940638 249.50209Q27.237513 249.06459 27.768763 248.81459Q28.300013 248.54897 28.940638 248.54897Q30.034388 248.54897 30.800013 249.25209Q31.550013 249.93959 31.550013 251.76772L31.550013 253.97084L35.05001 253.97084L35.05001 255.11147ZM30.550013 253.97084L30.550013 251.75209Q30.550013 250.64272 30.143763 250.18959Q29.721888 249.72084 28.971888 249.72084Q28.440638 249.72084 28.065638 250.00209Q27.675013 250.26772 27.550013 250.70522Q27.471888 251.00209 27.471888 251.76772L27.471888 253.97084L30.550013 253.97084ZM32.284386 247.48647L32.190636 246.42397Q32.846886 246.34584 33.253136 246.06459Q33.659386 245.78334 33.92501 245.20522Q34.17501 244.61147 34.17501 243.87709Q34.17501 243.23647 33.98751 242.73647Q33.784386 242.23647 33.45626 242.00209Q33.11251 241.75209 32.721886 241.75209Q32.315636 241.75209 32.01876 241.98647Q31.706263 242.22084 31.503138 242.75209Q31.362513 243.11147 31.081263 244.29897Q30.800013 245.47084 30.550013 245.93959Q30.221888 246.56459 29.753138 246.86147Q29.268763 247.15834 28.675013 247.15834Q28.034388 247.15834 27.471888 246.79897Q26.893763 246.42397 26.612513 245.72084Q26.315638 245.00209 26.315638 244.14272Q26.315638 243.18959 26.628138 242.45522Q26.925013 241.72084 27.534388 241.33022Q28.128138 240.93959 28.878138 240.90834L28.956263 242.00209Q28.143763 242.09584 27.737513 242.61147Q27.315638 243.11147 27.315638 244.09584Q27.315638 245.12709 27.690638 245.59584Q28.065638 246.06459 28.596888 246.06459Q29.065638 246.06459 29.362513 245.73647Q29.659388 245.40834 29.971888 244.03334Q30.284388 242.64272 30.518763 242.12709Q30.878138 241.37709 31.409388 241.01772Q31.925013 240.65834 32.628136 240.65834Q33.315636 240.65834 33.92501 241.04897Q34.51876 241.43959 34.86251 242.17397Q35.190636 242.90834 35.190636 243.83022Q35.190636 245.00209 34.86251 245.79897Q34.51876 246.58022 33.83126 247.03334Q33.14376 247.47084 32.284386 247.48647Z" fill-rule="nonzero"/><path fill="#000000" d="M63.55 398.71564Q63.55 397.1844 63.8625 396.2625Q64.175 395.325 64.78438 394.825Q65.40938 394.325 66.34688 394.325Q67.03438 394.325 67.55 394.60626Q68.08125 394.8875 68.425 395.41876Q68.76875 395.9344 68.95625 396.6844Q69.14375 397.4344 69.14375 398.71564Q69.14375 400.23126 68.83125 401.15314Q68.53438 402.075 67.90938 402.59064Q67.3 403.09064 66.34688 403.09064Q65.1125 403.09064 64.39375 402.2Q63.55 401.1375 63.55 398.71564ZM64.62813 398.71564Q64.62813 400.825 65.12813 401.52814Q65.62813 402.23126 66.34688 402.23126Q67.08125 402.23126 67.56563 401.52814Q68.06563 400.825 68.06563 398.71564Q68.06563 396.59064 67.56563 395.90314Q67.08125 395.2 66.33125 395.2Q65.6125 395.2 65.175 395.8094Q64.62813 396.59064 64.62813 398.71564ZM71.14375 402.95L71.14375 401.7469L72.34688 401.7469L72.34688 402.95L71.14375 402.95ZM73.55 398.71564Q73.55 397.1844 73.8625 396.2625Q74.175 395.325 74.78438 394.825Q75.40938 394.325 76.34688 394.325Q77.03438 394.325 77.55 394.60626Q78.08125 394.8875 78.425 395.41876Q78.76875 395.9344 78.95625 396.6844Q79.14375 397.4344 79.14375 398.71564Q79.14375 400.23126 78.83125 401.15314Q78.53438 402.075 77.90938 402.59064Q77.3 403.09064 76.34688 403.09064Q75.1125 403.09064 74.39375 402.2Q73.55 401.1375 73.55 398.71564ZM74.62813 398.71564Q74.62813 400.825 75.12813 401.52814Q75.62813 402.23126 76.34688 402.23126Q77.08125 402.23126 77.56563 401.52814Q78.06563 400.825 78.06563 398.71564Q78.06563 396.59064 77.56563 395.90314Q77.08125 395.2 76.33125 395.2Q75.6125 395.2 75.175 395.8094Q74.62813 396.59064 74.62813 398.71564ZM80.55 398.71564Q80.55 397.1844 80.8625 396.2625Q81.175 395.325 81.78438 394.825Q82.40938 394.325 83.34688 394.325Q84.03438 394.325 84.55 394.60626Q85.08125 394.8875 85.425 395.41876Q85.76875 395.9344 85.95625 396.6844Q86.14375 397.4344 86.14375 398.71564Q86.14375 400.23126 85.83125 401.15314Q85.53438 402.075 84.90938 402.59064Q84.3 403.09064 83.34688 403.09064Q82.1125 403.09064 81.39375 402.2Q80.55 401.1375 80.55 398.71564ZM81.62813 398.71564Q81.62813 400.825 82.12813 401.52814Q82.62813 402.23126 83.34688 402.23126Q84.08125 402.23126 84.56563 401.52814Q85.06563 400.825 85.06563 398.71564Q85.06563 396.59064 84.56563 395.90314Q84.08125 395.2 83.33125 395.2Q82.6125 395.2 82.175 395.8094Q81.62813 396.59064 81.62813 398.71564ZM88.00313 402.95L88.00313 394.35626L94.20625 394.35626L94.20625 395.3719L89.14375 395.3719L89.14375 397.9969L93.89375 397.9969L93.89375 399.0125L89.14375 399.0125L89.14375 401.9344L94.40938 401.9344L94.40938 402.95L88.00313 402.95ZM98.05 401.5594L98.05 399.2L95.72188 399.2L95.72188 398.21564L98.05 398.21564L98.05 395.8875L99.05 395.8875L99.05 398.21564L101.39375 398.21564L101.39375 399.2L99.05 399.2L99.05 401.5594L98.05 401.5594ZM102.55 398.71564Q102.55 397.1844 102.8625 396.2625Q103.175 395.325 103.78438 394.825Q104.40938 394.325 105.34688 394.325Q106.03438 394.325 106.55 394.60626Q107.08125 394.8875 107.425 395.41876Q107.76875 395.9344 107.95625 396.6844Q108.14375 397.4344 108.14375 398.71564Q108.14375 400.23126 107.83125 401.15314Q107.53438 402.075 106.90938 402.59064Q106.3 403.09064 105.34688 403.09064Q104.1125 403.09064 103.39375 402.2Q102.55 401.1375 102.55 398.71564ZM103.62813 398.71564Q103.62813 400.825 104.12813 401.52814Q104.62813 402.23126 105.34688 402.23126Q106.08125 402.23126 106.56563 401.52814Q107.06563 400.825 107.06563 398.71564Q107.06563 396.59064 106.56563 395.90314Q106.08125 395.2 105.33125 395.2Q104.6125 395.2 104.175 395.8094Q103.62813 396.59064 103.62813 398.71564Z" fill-rule="nonzero"/><path fill="#000000" d="M69.09688 327.47604L69.09688 328.49167L63.409374 328.49167Q63.409374 328.11667 63.534374 327.7573Q63.753124 327.17917 64.22188 326.61667Q64.70625 326.05417 65.6125 325.3198Q67.01875 324.16354 67.50313 323.49167Q68.00313 322.8198 68.00313 322.22604Q68.00313 321.60104 67.55 321.17917Q67.09688 320.74167 66.37813 320.74167Q65.6125 320.74167 65.15938 321.1948Q64.70625 321.64792 64.69063 322.46042L63.6125 322.35104Q63.721874 321.1323 64.44063 320.5073Q65.175 319.86667 66.40938 319.86667Q67.64375 319.86667 68.3625 320.55417Q69.08125 321.24167 69.08125 322.2573Q69.08125 322.77292 68.8625 323.27292Q68.65938 323.7573 68.15938 324.3198Q67.675 324.86667 66.55 325.8198Q65.59688 326.61667 65.31563 326.91354Q65.05 327.1948 64.87813 327.47604L69.09688 327.47604ZM71.14375 328.49167L71.14375 327.28854L72.34688 327.28854L72.34688 328.49167L71.14375 328.49167ZM73.55 326.24167L74.65938 326.14792Q74.78438 326.96042 75.22188 327.36667Q75.675 327.77292 76.31563 327.77292Q77.06563 327.77292 77.59688 327.1948Q78.12813 326.61667 78.12813 325.67917Q78.12813 324.77292 77.6125 324.2573Q77.1125 323.72604 76.28438 323.72604Q75.78438 323.72604 75.3625 323.96042Q74.95625 324.1948 74.72188 324.55417L73.7375 324.42917L74.56563 320.02292L78.84688 320.02292L78.84688 321.02292L75.40938 321.02292L74.95625 323.33542Q75.72188 322.78854 76.56563 322.78854Q77.69063 322.78854 78.45625 323.5698Q79.2375 324.35104 79.2375 325.58542Q79.2375 326.74167 78.56563 327.60104Q77.7375 328.6323 76.31563 328.6323Q75.14375 328.6323 74.39375 327.97604Q73.65938 327.3198 73.55 326.24167ZM80.55 324.2573Q80.55 322.72604 80.8625 321.80417Q81.175 320.86667 81.78438 320.36667Q82.40938 319.86667 83.34688 319.86667Q84.03438 319.86667 84.55 320.14792Q85.08125 320.42917 85.425 320.96042Q85.76875 321.47604 85.95625 322.22604Q86.14375 322.97604 86.14375 324.2573Q86.14375 325.77292 85.83125 326.6948Q85.53438 327.61667 84.90938 328.1323Q84.3 328.6323 83.34688 328.6323Q82.1125 328.6323 81.39375 327.74167Q80.55 326.67917 80.55 324.2573ZM81.62813 324.2573Q81.62813 326.36667 82.12813 327.0698Q82.62813 327.77292 83.34688 327.77292Q84.08125 327.77292 84.56563 327.0698Q85.06563 326.36667 85.06563 324.2573Q85.06563 322.1323 84.56563 321.4448Q84.08125 320.74167 83.33125 320.74167Q82.6125 320.74167 82.175 321.35104Q81.62813 322.1323 81.62813 324.2573ZM88.00313 328.49167L88.00313 319.89792L94.20625 319.89792L94.20625 320.91354L89.14375 320.91354L89.14375 323.53854L93.89375 323.53854L93.89375 324.55417L89.14375 324.55417L89.14375 327.47604L94.40938 327.47604L94.40938 328.49167L88.00313 328.49167ZM98.05 327.10104L98.05 324.74167L95.72188 324.74167L95.72188 323.7573L98.05 323.7573L98.05 321.42917L99.05 321.42917L99.05 323.7573L101.39375 323.7573L101.39375 324.74167L99.05 324.74167L99.05 327.10104L98.05 327.10104ZM102.70625 326.5073L103.72188 326.41354Q103.84688 327.1323 104.20625 327.46042Q104.58125 327.77292 105.14375 327.77292Q105.62813 327.77292 105.9875 327.55417Q106.3625 327.3198 106.59688 326.96042Q106.83125 326.58542 106.9875 325.96042Q107.14375 325.3198 107.14375 324.66354Q107.14375 324.58542 107.14375 324.4448Q106.83125 324.9448 106.28438 325.27292Q105.7375 325.58542 105.09688 325.58542Q104.01875 325.58542 103.28438 324.8198Q102.55 324.03854 102.55 322.77292Q102.55 321.46042 103.31563 320.66354Q104.09688 319.86667 105.25313 319.86667Q106.08125 319.86667 106.76875 320.3198Q107.47188 320.77292 107.83125 321.61667Q108.19063 322.4448 108.19063 324.02292Q108.19063 325.66354 107.83125 326.64792Q107.4875 327.61667 106.76875 328.1323Q106.06563 328.6323 105.12813 328.6323Q104.1125 328.6323 103.47188 328.08542Q102.83125 327.52292 102.70625 326.5073ZM107.01875 322.71042Q107.01875 321.80417 106.53438 321.27292Q106.06563 320.74167 105.37813 320.74167Q104.675 320.74167 104.14375 321.3198Q103.62813 321.8823 103.62813 322.80417Q103.62813 323.61667 104.12813 324.1323Q104.62813 324.64792 105.34688 324.64792Q106.08125 324.64792 106.55 324.1323Q107.01875 323.61667 107.01875 322.71042Z" fill-rule="nonzero"/><path fill="#000000" d="M63.55 251.78334L64.65938 251.68959Q64.78438 252.50209 65.22188 252.90834Q65.675 253.31459 66.31563 253.31459Q67.06563 253.31459 67.59688 252.73647Q68.12813 252.15834 68.12813 251.22084Q68.12813 250.31459 67.6125 249.79897Q67.1125 249.26772 66.28438 249.26772Q65.78438 249.26772 65.3625 249.50209Q64.95625 249.73647 64.72188 250.09584L63.7375 249.97084L64.56563 245.56459L68.84688 245.56459L68.84688 246.56459L65.40938 246.56459L64.95625 248.87709Q65.72188 248.33022 66.56563 248.33022Q67.69063 248.33022 68.45625 249.11147Q69.2375 249.89272 69.2375 251.12709Q69.2375 252.28334 68.56563 253.14272Q67.7375 254.17397 66.31563 254.17397Q65.14375 254.17397 64.39375 253.51772Q63.659374 252.86147 63.55 251.78334ZM71.14375 254.03334L71.14375 252.83022L72.34688 252.83022L72.34688 254.03334L71.14375 254.03334ZM73.55 249.79897Q73.55 248.26772 73.8625 247.34584Q74.175 246.40834 74.78438 245.90834Q75.40938 245.40834 76.34688 245.40834Q77.03438 245.40834 77.55 245.68959Q78.08125 245.97084 78.425 246.50209Q78.76875 247.01772 78.95625 247.76772Q79.14375 248.51772 79.14375 249.79897Q79.14375 251.31459 78.83125 252.23647Q78.53438 253.15834 77.90938 253.67397Q77.3 254.17397 76.34688 254.17397Q75.1125 254.17397 74.39375 253.28334Q73.55 252.22084 73.55 249.79897ZM74.62813 249.79897Q74.62813 251.90834 75.12813 252.61147Q75.62813 253.31459 76.34688 253.31459Q77.08125 253.31459 77.56563 252.61147Q78.06563 251.90834 78.06563 249.79897Q78.06563 247.67397 77.56563 246.98647Q77.08125 246.28334 76.33125 246.28334Q75.6125 246.28334 75.175 246.89272Q74.62813 247.67397 74.62813 249.79897ZM80.55 249.79897Q80.55 248.26772 80.8625 247.34584Q81.175 246.40834 81.78438 245.90834Q82.40938 245.40834 83.34688 245.40834Q84.03438 245.40834 84.55 245.68959Q85.08125 245.97084 85.425 246.50209Q85.76875 247.01772 85.95625 247.76772Q86.14375 248.51772 86.14375 249.79897Q86.14375 251.31459 85.83125 252.23647Q85.53438 253.15834 84.90938 253.67397Q84.3 254.17397 83.34688 254.17397Q82.1125 254.17397 81.39375 253.28334Q80.55 252.22084 80.55 249.79897ZM81.62813 249.79897Q81.62813 251.90834 82.12813 252.61147Q82.62813 253.31459 83.34688 253.31459Q84.08125 253.31459 84.56563 252.61147Q85.06563 251.90834 85.06563 249.79897Q85.06563 247.67397 84.56563 246.98647Q84.08125 246.28334 83.33125 246.28334Q82.6125 246.28334 82.175 246.89272Q81.62813 247.67397 81.62813 249.79897ZM88.00313 254.03334L88.00313 245.43959L94.20625 245.43959L94.20625 246.45522L89.14375 246.45522L89.14375 249.08022L93.89375 249.08022L93.89375 250.09584L89.14375 250.09584L89.14375 253.01772L94.40938 253.01772L94.40938 254.03334L88.00313 254.03334ZM98.05 252.64272L98.05 250.28334L95.72188 250.28334L95.72188 249.29897L98.05 249.29897L98.05 246.97084L99.05 246.97084L99.05 249.29897L101.39375 249.29897L101.39375 250.28334L99.05 250.28334L99.05 252.64272L98.05 252.64272ZM102.70625 252.04897L103.72188 251.95522Q103.84688 252.67397 104.20625 253.00209Q104.58125 253.31459 105.14375 253.31459Q105.62813 253.31459 105.9875 253.09584Q106.3625 252.86147 106.59688 252.50209Q106.83125 252.12709 106.9875 251.50209Q107.14375 250.86147 107.14375 250.20522Q107.14375 250.12709 107.14375 249.98647Q106.83125 250.48647 106.28438 250.81459Q105.7375 251.12709 105.09688 251.12709Q104.01875 251.12709 103.28438 250.36147Q102.55 249.58022 102.55 248.31459Q102.55 247.00209 103.31563 246.20522Q104.09688 245.40834 105.25313 245.40834Q106.08125 245.40834 106.76875 245.86147Q107.47188 246.31459 107.83125 247.15834Q108.19063 247.98647 108.19063 249.56459Q108.19063 251.20522 107.83125 252.18959Q107.4875 253.15834 106.76875 253.67397Q106.06563 254.17397 105.12813 254.17397Q104.1125 254.17397 103.47188 253.62709Q102.83125 253.06459 102.70625 252.04897ZM107.01875 248.25209Q107.01875 247.34584 106.53438 246.81459Q106.06563 246.28334 105.37813 246.28334Q104.675 246.28334 104.14375 246.86147Q103.62813 247.42397 103.62813 248.34584Q103.62813 249.15834 104.12813 249.67397Q104.62813 250.18959 105.34688 250.18959Q106.08125 250.18959 106.55 249.67397Q107.01875 249.15834 107.01875 248.25209Z" fill-rule="nonzero"/><path fill="#000000" d="M63.6125 172.10625L63.6125 171.09062L69.175 171.09062L69.175 171.91875Q68.3625 172.79375 67.55 174.24687Q66.75313 175.68437 66.31563 177.21562Q65.9875 178.29375 65.90938 179.575L64.81563 179.575Q64.83125 178.55937 65.20625 177.12187Q65.59688 175.68437 66.3 174.35625Q67.01875 173.02812 67.83125 172.10625L63.6125 172.10625ZM71.14375 179.575L71.14375 178.37187L72.34688 178.37187L72.34688 179.575L71.14375 179.575ZM73.55 177.325L74.65938 177.23125Q74.78438 178.04375 75.22188 178.45Q75.675 178.85625 76.31563 178.85625Q77.06563 178.85625 77.59688 178.27812Q78.12813 177.7 78.12813 176.7625Q78.12813 175.85625 77.6125 175.34062Q77.1125 174.80937 76.28438 174.80937Q75.78438 174.80937 75.3625 175.04375Q74.95625 175.27812 74.72188 175.6375L73.7375 175.5125L74.56563 171.10625L78.84688 171.10625L78.84688 172.10625L75.40938 172.10625L74.95625 174.41875Q75.72188 173.87187 76.56563 173.87187Q77.69063 173.87187 78.45625 174.65312Q79.2375 175.43437 79.2375 176.66875Q79.2375 177.825 78.56563 178.68437Q77.7375 179.71562 76.31563 179.71562Q75.14375 179.71562 74.39375 179.05937Q73.65938 178.40312 73.55 177.325ZM80.55 175.34062Q80.55 173.80937 80.8625 172.8875Q81.175 171.95 81.78438 171.45Q82.40938 170.95 83.34688 170.95Q84.03438 170.95 84.55 171.23125Q85.08125 171.5125 85.425 172.04375Q85.76875 172.55937 85.95625 173.30937Q86.14375 174.05937 86.14375 175.34062Q86.14375 176.85625 85.83125 177.77812Q85.53438 178.7 84.90938 179.21562Q84.3 179.71562 83.34688 179.71562Q82.1125 179.71562 81.39375 178.825Q80.55 177.7625 80.55 175.34062ZM81.62813 175.34062Q81.62813 177.45 82.12813 178.15312Q82.62813 178.85625 83.34688 178.85625Q84.08125 178.85625 84.56563 178.15312Q85.06563 177.45 85.06563 175.34062Q85.06563 173.21562 84.56563 172.52812Q84.08125 171.825 83.33125 171.825Q82.6125 171.825 82.175 172.43437Q81.62813 173.21562 81.62813 175.34062ZM88.00313 179.575L88.00313 170.98125L94.20625 170.98125L94.20625 171.99687L89.14375 171.99687L89.14375 174.62187L93.89375 174.62187L93.89375 175.6375L89.14375 175.6375L89.14375 178.55937L94.40938 178.55937L94.40938 179.575L88.00313 179.575ZM98.05 178.18437L98.05 175.825L95.72188 175.825L95.72188 174.84062L98.05 174.84062L98.05 172.5125L99.05 172.5125L99.05 174.84062L101.39375 174.84062L101.39375 175.825L99.05 175.825L99.05 178.18437L98.05 178.18437ZM102.70625 177.59062L103.72188 177.49687Q103.84688 178.21562 104.20625 178.54375Q104.58125 178.85625 105.14375 178.85625Q105.62813 178.85625 105.9875 178.6375Q106.3625 178.40312 106.59688 178.04375Q106.83125 177.66875 106.9875 177.04375Q107.14375 176.40312 107.14375 175.74687Q107.14375 175.66875 107.14375 175.52812Q106.83125 176.02812 106.28438 176.35625Q105.7375 176.66875 105.09688 176.66875Q104.01875 176.66875 103.28438 175.90312Q102.55 175.12187 102.55 173.85625Q102.55 172.54375 103.31563 171.74687Q104.09688 170.95 105.25313 170.95Q106.08125 170.95 106.76875 171.40312Q107.47188 171.85625 107.83125 172.7Q108.19063 173.52812 108.19063 175.10625Q108.19063 176.74687 107.83125 177.73125Q107.4875 178.7 106.76875 179.21562Q106.06563 179.71562 105.12813 179.71562Q104.1125 179.71562 103.47188 179.16875Q102.83125 178.60625 102.70625 177.59062ZM107.01875 173.79375Q107.01875 172.8875 106.53438 172.35625Q106.06563 171.825 105.37813 171.825Q104.675 171.825 104.14375 172.40312Q103.62813 172.96562 103.62813 173.8875Q103.62813 174.7 104.12813 175.21562Q104.62813 175.73125 105.34688 175.73125Q106.08125 175.73125 106.55 175.21562Q107.01875 174.7 107.01875 173.79375Z" fill-rule="nonzero"/><path fill="#000000" d="M60.51875 105.11667L59.471874 105.11667L59.471874 98.39792Q59.08125 98.75729 58.45625 99.13229Q57.846874 99.49167 57.3625 99.66354L57.3625 98.64792Q58.2375 98.22604 58.89375 97.64792Q59.565624 97.05417 59.846874 96.49167L60.51875 96.49167L60.51875 105.11667ZM64.14375 105.11667L64.14375 103.91354L65.34688 103.91354L65.34688 105.11667L64.14375 105.11667ZM66.55 100.88229Q66.55 99.35104 66.8625 98.42917Q67.175 97.49167 67.78438 96.99167Q68.40938 96.49167 69.34688 96.49167Q70.03438 96.49167 70.55 96.77292Q71.08125 97.05417 71.425 97.58542Q71.76875 98.10104 71.95625 98.85104Q72.14375 99.60104 72.14375 100.88229Q72.14375 102.39792 71.83125 103.31979Q71.53438 104.24167 70.90938 104.75729Q70.3 105.25729 69.34688 105.25729Q68.1125 105.25729 67.39375 104.36667Q66.55 103.30417 66.55 100.88229ZM67.62813 100.88229Q67.62813 102.99167 68.12813 103.69479Q68.62813 104.39792 69.34688 104.39792Q70.08125 104.39792 70.56563 103.69479Q71.06563 102.99167 71.06563 100.88229Q71.06563 98.75729 70.56563 98.06979Q70.08125 97.36667 69.33125 97.36667Q68.6125 97.36667 68.175 97.97604Q67.62813 98.75729 67.62813 100.88229ZM73.55 100.88229Q73.55 99.35104 73.8625 98.42917Q74.175 97.49167 74.78438 96.99167Q75.40938 96.49167 76.34688 96.49167Q77.03438 96.49167 77.55 96.77292Q78.08125 97.05417 78.425 97.58542Q78.76875 98.10104 78.95625 98.85104Q79.14375 99.60104 79.14375 100.88229Q79.14375 102.39792 78.83125 103.31979Q78.53438 104.24167 77.90938 104.75729Q77.3 105.25729 76.34688 105.25729Q75.1125 105.25729 74.39375 104.36667Q73.55 103.30417 73.55 100.88229ZM74.62813 100.88229Q74.62813 102.99167 75.12813 103.69479Q75.62813 104.39792 76.34688 104.39792Q77.08125 104.39792 77.56563 103.69479Q78.06563 102.99167 78.06563 100.88229Q78.06563 98.75729 77.56563 98.06979Q77.08125 97.36667 76.33125 97.36667Q75.6125 97.36667 75.175 97.97604Q74.62813 98.75729 74.62813 100.88229ZM81.00313 105.11667L81.00313 96.52292L87.20625 96.52292L87.20625 97.53854L82.14375 97.53854L82.14375 100.16354L86.89375 100.16354L86.89375 101.17917L82.14375 101.17917L82.14375 104.10104L87.40938 104.10104L87.40938 105.11667L81.00313 105.11667ZM91.05 103.72604L91.05 101.36667L88.72188 101.36667L88.72188 100.38229L91.05 100.38229L91.05 98.05417L92.05 98.05417L92.05 100.38229L94.39375 100.38229L94.39375 101.36667L92.05 101.36667L92.05 103.72604L91.05 103.72604ZM99.51875 105.11667L98.47188 105.11667L98.47188 98.39792Q98.08125 98.75729 97.45625 99.13229Q96.84688 99.49167 96.3625 99.66354L96.3625 98.64792Q97.2375 98.22604 97.89375 97.64792Q98.56563 97.05417 98.84688 96.49167L99.51875 96.49167L99.51875 105.11667ZM102.55 100.88229Q102.55 99.35104 102.8625 98.42917Q103.175 97.49167 103.78438 96.99167Q104.40938 96.49167 105.34688 96.49167Q106.03438 96.49167 106.55 96.77292Q107.08125 97.05417 107.425 97.58542Q107.76875 98.10104 107.95625 98.85104Q108.14375 99.60104 108.14375 100.88229Q108.14375 102.39792 107.83125 103.31979Q107.53438 104.24167 106.90938 104.75729Q106.3 105.25729 105.34688 105.25729Q104.1125 105.25729 103.39375 104.36667Q102.55 103.30417 102.55 100.88229ZM103.62813 100.88229Q103.62813 102.99167 104.12813 103.69479Q104.62813 104.39792 105.34688 104.39792Q106.08125 104.39792 106.56563 103.69479Q107.06563 102.99167 107.06563 100.88229Q107.06563 98.75729 106.56563 98.06979Q106.08125 97.36667 105.33125 97.36667Q104.6125 97.36667 104.175 97.97604Q103.62813 98.75729 103.62813 100.88229Z" fill-rule="nonzero"/><path fill="#000000" d="M232.21974 420.9344L232.21974 421.95L226.53224 421.95Q226.53224 421.575 226.65724 421.21564Q226.87599 420.6375 227.34474 420.075Q227.82912 419.5125 228.73537 418.77814Q230.14162 417.6219 230.62599 416.95Q231.12599 416.27814 231.12599 415.6844Q231.12599 415.0594 230.67287 414.6375Q230.21974 414.2 229.50099 414.2Q228.73537 414.2 228.28224 414.65314Q227.82912 415.10626 227.81349 415.91876L226.73537 415.8094Q226.84474 414.59064 227.56349 413.96564Q228.29787 413.325 229.53224 413.325Q230.76662 413.325 231.48537 414.0125Q232.20412 414.7 232.20412 415.71564Q232.20412 416.23126 231.98537 416.73126Q231.78224 417.21564 231.28224 417.77814Q230.79787 418.325 229.67287 419.27814Q228.71974 420.075 228.43849 420.3719Q228.17287 420.65314 228.00099 420.9344L232.21974 420.9344ZM233.67287 419.7L234.78224 419.60626Q234.90724 420.41876 235.34474 420.825Q235.79787 421.23126 236.43849 421.23126Q237.18849 421.23126 237.71974 420.65314Q238.25099 420.075 238.25099 419.1375Q238.25099 418.23126 237.73537 417.71564Q237.23537 417.1844 236.40724 417.1844Q235.90724 417.1844 235.48537 417.41876Q235.07912 417.65314 234.84474 418.0125L233.86037 417.8875L234.68849 413.48126L238.96974 413.48126L238.96974 414.48126L235.53224 414.48126L235.07912 416.79376Q235.84474 416.2469 236.68849 416.2469Q237.81349 416.2469 238.57912 417.02814Q239.36037 417.8094 239.36037 419.04376Q239.36037 420.2 238.68849 421.0594Q237.86037 422.09064 236.43849 422.09064Q235.26662 422.09064 234.51662 421.4344Q233.78224 420.77814 233.67287 419.7ZM240.67287 417.71564Q240.67287 416.1844 240.98537 415.2625Q241.29787 414.325 241.90724 413.825Q242.53224 413.325 243.46974 413.325Q244.15724 413.325 244.67287 413.60626Q245.20412 413.8875 245.54787 414.41876Q245.89162 414.9344 246.07912 415.6844Q246.26662 416.4344 246.26662 417.71564Q246.26662 419.23126 245.95412 420.15314Q245.65724 421.075 245.03224 421.59064Q244.42287 422.09064 243.46974 422.09064Q242.23537 422.09064 241.51662 421.2Q240.67287 420.1375 240.67287 417.71564ZM241.75099 417.71564Q241.75099 419.825 242.25099 420.52814Q242.75099 421.23126 243.46974 421.23126Q244.20412 421.23126 244.68849 420.52814Q245.18849 419.825 245.18849 417.71564Q245.18849 415.59064 244.68849 414.90314Q244.20412 414.2 243.45412 414.2Q242.73537 414.2 242.29787 414.8094Q241.75099 415.59064 241.75099 417.71564Z" fill-rule="nonzero"/><path fill="#000000" d="M382.07993 419.7L383.1893 419.60626Q383.3143 420.41876 383.7518 420.825Q384.20493 421.23126 384.84555 421.23126Q385.59555 421.23126 386.1268 420.65314Q386.65805 420.075 386.65805 419.1375Q386.65805 418.23126 386.14243 417.71564Q385.64243 417.1844 384.8143 417.1844Q384.3143 417.1844 383.89243 417.41876Q383.48618 417.65314 383.2518 418.0125L382.26743 417.8875L383.09555 413.48126L387.3768 413.48126L387.3768 414.48126L383.9393 414.48126L383.48618 416.79376Q384.2518 416.2469 385.09555 416.2469Q386.22055 416.2469 386.98618 417.02814Q387.76743 417.8094 387.76743 419.04376Q387.76743 420.2 387.09555 421.0594Q386.26743 422.09064 384.84555 422.09064Q383.67368 422.09064 382.92368 421.4344Q382.1893 420.77814 382.07993 419.7ZM389.07993 417.71564Q389.07993 416.1844 389.39243 415.2625Q389.70493 414.325 390.3143 413.825Q390.9393 413.325 391.8768 413.325Q392.5643 413.325 393.07993 413.60626Q393.61118 413.8875 393.95493 414.41876Q394.29868 414.9344 394.48618 415.6844Q394.67368 416.4344 394.67368 417.71564Q394.67368 419.23126 394.36118 420.15314Q394.0643 421.075 393.4393 421.59064Q392.82993 422.09064 391.8768 422.09064Q390.64243 422.09064 389.92368 421.2Q389.07993 420.1375 389.07993 417.71564ZM390.15805 417.71564Q390.15805 419.825 390.65805 420.52814Q391.15805 421.23126 391.8768 421.23126Q392.61118 421.23126 393.09555 420.52814Q393.59555 419.825 393.59555 417.71564Q393.59555 415.59064 393.09555 414.90314Q392.61118 414.2 391.86118 414.2Q391.14243 414.2 390.70493 414.8094Q390.15805 415.59064 390.15805 417.71564ZM396.07993 417.71564Q396.07993 416.1844 396.39243 415.2625Q396.70493 414.325 397.3143 413.825Q397.9393 413.325 398.8768 413.325Q399.5643 413.325 400.07993 413.60626Q400.61118 413.8875 400.95493 414.41876Q401.29868 414.9344 401.48618 415.6844Q401.67368 416.4344 401.67368 417.71564Q401.67368 419.23126 401.36118 420.15314Q401.0643 421.075 400.4393 421.59064Q399.82993 422.09064 398.8768 422.09064Q397.64243 422.09064 396.92368 421.2Q396.07993 420.1375 396.07993 417.71564ZM397.15805 417.71564Q397.15805 419.825 397.65805 420.52814Q398.15805 421.23126 398.8768 421.23126Q399.61118 421.23126 400.09555 420.52814Q400.59555 419.825 400.59555 417.71564Q400.59555 415.59064 400.09555 414.90314Q399.61118 414.2 398.86118 414.2Q398.14243 414.2 397.70493 414.8094Q397.15805 415.59064 397.15805 417.71564Z" fill-rule="nonzero"/><path fill="#000000" d="M537.5495 414.48126L537.5495 413.46564L543.112 413.46564L543.112 414.29376Q542.2995 415.16876 541.487 416.6219Q540.6901 418.0594 540.2526 419.59064Q539.9245 420.66876 539.8464 421.95L538.7526 421.95Q538.76825 420.9344 539.14325 419.4969Q539.5339 418.0594 540.237 416.73126Q540.95575 415.40314 541.76825 414.48126L537.5495 414.48126ZM544.487 419.7L545.5964 419.60626Q545.7214 420.41876 546.1589 420.825Q546.612 421.23126 547.2526 421.23126Q548.0026 421.23126 548.5339 420.65314Q549.0651 420.075 549.0651 419.1375Q549.0651 418.23126 548.5495 417.71564Q548.0495 417.1844 547.2214 417.1844Q546.7214 417.1844 546.2995 417.41876Q545.89325 417.65314 545.6589 418.0125L544.6745 417.8875L545.5026 413.48126L549.7839 413.48126L549.7839 414.48126L546.3464 414.48126L545.89325 416.79376Q546.6589 416.2469 547.5026 416.2469Q548.6276 416.2469 549.39325 417.02814Q550.1745 417.8094 550.1745 419.04376Q550.1745 420.2 549.5026 421.0594Q548.6745 422.09064 547.2526 422.09064Q546.08075 422.09064 545.33075 421.4344Q544.5964 420.77814 544.487 419.7ZM551.487 417.71564Q551.487 416.1844 551.7995 415.2625Q552.112 414.325 552.7214 413.825Q553.3464 413.325 554.2839 413.325Q554.9714 413.325 555.487 413.60626Q556.01825 413.8875 556.362 414.41876Q556.70575 414.9344 556.89325 415.6844Q557.08075 416.4344 557.08075 417.71564Q557.08075 419.23126 556.76825 420.15314Q556.4714 421.075 555.8464 421.59064Q555.237 422.09064 554.2839 422.09064Q553.0495 422.09064 552.33075 421.2Q551.487 420.1375 551.487 417.71564ZM552.5651 417.71564Q552.5651 419.825 553.0651 420.52814Q553.5651 421.23126 554.2839 421.23126Q555.01825 421.23126 555.5026 420.52814Q556.0026 419.825 556.0026 417.71564Q556.0026 415.59064 555.5026 414.90314Q555.01825 414.2 554.26825 414.2Q553.5495 414.2 553.112 414.8094Q552.5651 415.59064 552.5651 417.71564Z" fill-rule="nonzero"/><path fill="#000000" d="M693.36285 421.95L692.316 421.95L692.316 415.23126Q691.92535 415.59064 691.30035 415.96564Q690.691 416.325 690.2066 416.4969L690.2066 415.48126Q691.0816 415.0594 691.73785 414.48126Q692.4097 413.8875 692.691 413.325L693.36285 413.325L693.36285 421.95ZM696.3941 417.71564Q696.3941 416.1844 696.7066 415.2625Q697.0191 414.325 697.6285 413.825Q698.2535 413.325 699.191 413.325Q699.8785 413.325 700.3941 413.60626Q700.92535 413.8875 701.2691 414.41876Q701.61285 414.9344 701.80035 415.6844Q701.98785 416.4344 701.98785 417.71564Q701.98785 419.23126 701.67535 420.15314Q701.3785 421.075 700.7535 421.59064Q700.1441 422.09064 699.191 422.09064Q697.9566 422.09064 697.23785 421.2Q696.3941 420.1375 696.3941 417.71564ZM697.4722 417.71564Q697.4722 419.825 697.9722 420.52814Q698.4722 421.23126 699.191 421.23126Q699.92535 421.23126 700.4097 420.52814Q700.9097 419.825 700.9097 417.71564Q700.9097 415.59064 700.4097 414.90314Q699.92535 414.2 699.17535 414.2Q698.4566 414.2 698.0191 414.8094Q697.4722 415.59064 697.4722 417.71564ZM703.3941 417.71564Q703.3941 416.1844 703.7066 415.2625Q704.0191 414.325 704.6285 413.825Q705.2535 413.325 706.191 413.325Q706.8785 413.325 707.3941 413.60626Q707.92535 413.8875 708.2691 414.41876Q708.61285 414.9344 708.80035 415.6844Q708.98785 416.4344 708.98785 417.71564Q708.98785 419.23126 708.67535 420.15314Q708.3785 421.075 707.7535 421.59064Q707.1441 422.09064 706.191 422.09064Q704.9566 422.09064 704.23785 421.2Q703.3941 420.1375 703.3941 417.71564ZM704.4722 417.71564Q704.4722 419.825 704.9722 420.52814Q705.4722 421.23126 706.191 421.23126Q706.92535 421.23126 707.4097 420.52814Q707.9097 419.825 707.9097 417.71564Q707.9097 415.59064 707.4097 414.90314Q706.92535 414.2 706.17535 414.2Q705.4566 414.2 705.0191 414.8094Q704.4722 415.59064 704.4722 417.71564ZM710.3941 417.71564Q710.3941 416.1844 710.7066 415.2625Q711.0191 414.325 711.6285 413.825Q712.2535 413.325 713.191 413.325Q713.8785 413.325 714.3941 413.60626Q714.92535 413.8875 715.2691 414.41876Q715.61285 414.9344 715.80035 415.6844Q715.98785 416.4344 715.98785 417.71564Q715.98785 419.23126 715.67535 420.15314Q715.3785 421.075 714.7535 421.59064Q714.1441 422.09064 713.191 422.09064Q711.9566 422.09064 711.23785 421.2Q710.3941 420.1375 710.3941 417.71564ZM711.4722 417.71564Q711.4722 419.825 711.9722 420.52814Q712.4722 421.23126 713.191 421.23126Q713.92535 421.23126 714.4097 420.52814Q714.9097 419.825 714.9097 417.71564Q714.9097 415.59064 714.4097 414.90314Q713.92535 414.2 713.17535 414.2Q712.4566 414.2 712.0191 414.8094Q711.4722 415.59064 711.4722 417.71564Z" fill-rule="nonzero"/><path fill="#000000" d="M848.7699 421.95L847.723 421.95L847.723 415.23126Q847.3324 415.59064 846.7074 415.96564Q846.098 416.325 845.61365 416.4969L845.61365 415.48126Q846.48865 415.0594 847.1449 414.48126Q847.8168 413.8875 848.098 413.325L848.7699 413.325L848.7699 421.95ZM857.348 420.9344L857.348 421.95L851.6605 421.95Q851.6605 421.575 851.7855 421.21564Q852.0043 420.6375 852.473 420.075Q852.9574 419.5125 853.86365 418.77814Q855.2699 417.6219 855.7543 416.95Q856.2543 416.27814 856.2543 415.6844Q856.2543 415.0594 855.80115 414.6375Q855.348 414.2 854.6293 414.2Q853.86365 414.2 853.4105 414.65314Q852.9574 415.10626 852.9418 415.91876L851.86365 415.8094Q851.973 414.59064 852.6918 413.96564Q853.42615 413.325 854.6605 413.325Q855.8949 413.325 856.61365 414.0125Q857.3324 414.7 857.3324 415.71564Q857.3324 416.23126 857.11365 416.73126Q856.9105 417.21564 856.4105 417.77814Q855.92615 418.325 854.80115 419.27814Q853.848 420.075 853.5668 420.3719Q853.30115 420.65314 853.1293 420.9344L857.348 420.9344ZM858.80115 419.7L859.9105 419.60626Q860.0355 420.41876 860.473 420.825Q860.92615 421.23126 861.5668 421.23126Q862.3168 421.23126 862.848 420.65314Q863.3793 420.075 863.3793 419.1375Q863.3793 418.23126 862.86365 417.71564Q862.36365 417.1844 861.5355 417.1844Q861.0355 417.1844 860.61365 417.41876Q860.2074 417.65314 859.973 418.0125L858.98865 417.8875L859.8168 413.48126L864.098 413.48126L864.098 414.48126L860.6605 414.48126L860.2074 416.79376Q860.973 416.2469 861.8168 416.2469Q862.9418 416.2469 863.7074 417.02814Q864.48865 417.8094 864.48865 419.04376Q864.48865 420.2 863.8168 421.0594Q862.98865 422.09064 861.5668 422.09064Q860.3949 422.09064 859.6449 421.4344Q858.9105 420.77814 858.80115 419.7ZM865.80115 417.71564Q865.80115 416.1844 866.11365 415.2625Q866.42615 414.325 867.0355 413.825Q867.6605 413.325 868.598 413.325Q869.2855 413.325 869.80115 413.60626Q870.3324 413.8875 870.67615 414.41876Q871.0199 414.9344 871.2074 415.6844Q871.3949 416.4344 871.3949 417.71564Q871.3949 419.23126 871.0824 420.15314Q870.7855 421.075 870.1605 421.59064Q869.55115 422.09064 868.598 422.09064Q867.36365 422.09064 866.6449 421.2Q865.80115 420.1375 865.80115 417.71564ZM866.8793 417.71564Q866.8793 419.825 867.3793 420.52814Q867.8793 421.23126 868.598 421.23126Q869.3324 421.23126 869.8168 420.52814Q870.3168 419.825 870.3168 417.71564Q870.3168 415.59064 869.8168 414.90314Q869.3324 414.2 868.5824 414.2Q867.86365 414.2 867.42615 414.8094Q866.8793 415.59064 866.8793 417.71564Z" fill-rule="nonzero"/><path stroke="#4285f4" stroke-width="4.0" stroke-linecap="butt" d="M326.5 71.083336L338.5 71.083336" fill-rule="nonzero"/><path fill="#1a1a1a" d="M347.4375 75.083336L347.4375 66.489586L351.25 66.489586Q352.40625 66.489586 353.0 66.72396Q353.59375 66.958336 353.95312 67.552086Q354.3125 68.13021 354.3125 68.833336Q354.3125 69.75521 353.71875 70.38021Q353.125 71.00521 351.89062 71.177086Q352.34375 71.395836 352.57812 71.59896Q353.07812 72.052086 353.51562 72.739586L355.01562 75.083336L353.57812 75.083336L352.45312 73.302086Q351.95312 72.520836 351.625 72.114586Q351.3125 71.708336 351.04688 71.552086Q350.79688 71.38021 350.53125 71.302086Q350.34375 71.270836 349.90625 71.270836L348.57812 71.270836L348.57812 75.083336L347.4375 75.083336ZM348.57812 70.28646L351.03125 70.28646Q351.79688 70.28646 352.23438 70.13021Q352.6875 69.958336 352.90625 69.614586Q353.14062 69.25521 353.14062 68.833336Q353.14062 68.22396 352.6875 67.833336Q352.25 67.44271 351.29688 67.44271L348.57812 67.44271L348.57812 70.28646ZM360.54688 73.083336L361.64062 73.208336Q361.39062 74.16146 360.6875 74.69271Q359.98438 75.22396 358.90625 75.22396Q357.54688 75.22396 356.73438 74.38021Q355.9375 73.53646 355.9375 72.020836Q355.9375 70.458336 356.75 69.59896Q357.5625 68.72396 358.84375 68.72396Q360.09375 68.72396 360.875 69.56771Q361.67188 70.41146 361.67188 71.958336Q361.67188 72.052086 361.67188 72.239586L357.03125 72.239586Q357.09375 73.270836 357.60938 73.81771Q358.125 74.34896 358.90625 74.34896Q359.48438 74.34896 359.89062 74.052086Q360.3125 73.739586 360.54688 73.083336ZM357.09375 71.38021L360.5625 71.38021Q360.5 70.583336 360.17188 70.19271Q359.65625 69.583336 358.85938 69.583336Q358.125 69.583336 357.625 70.06771Q357.14062 70.552086 357.09375 71.38021ZM363.09375 75.59896L364.125 75.75521Q364.1875 76.22396 364.48438 76.44271Q364.875 76.739586 365.54688 76.739586Q366.28125 76.739586 366.67188 76.44271Q367.07812 76.145836 367.21875 75.63021Q367.3125 75.302086 367.29688 74.270836Q366.60938 75.083336 365.57812 75.083336Q364.29688 75.083336 363.59375 74.16146Q362.89062 73.22396 362.89062 71.94271Q362.89062 71.052086 363.20312 70.302086Q363.53125 69.53646 364.14062 69.13021Q364.75 68.72396 365.57812 68.72396Q366.6875 68.72396 367.40625 69.614586L367.40625 68.864586L368.375 68.864586L368.375 74.239586Q368.375 75.69271 368.07812 76.302086Q367.78125 76.91146 367.14062 77.25521Q366.5 77.614586 365.5625 77.614586Q364.45312 77.614586 363.76562 77.114586Q363.07812 76.614586 363.09375 75.59896ZM363.96875 71.864586Q363.96875 73.083336 364.45312 73.645836Q364.9375 74.208336 365.67188 74.208336Q366.40625 74.208336 366.89062 73.645836Q367.39062 73.083336 367.39062 71.895836Q367.39062 70.75521 366.875 70.177086Q366.375 69.59896 365.65625 69.59896Q364.95312 69.59896 364.45312 70.177086Q363.96875 70.739586 363.96875 71.864586ZM374.375 75.083336L374.375 74.16146Q373.64062 75.22396 372.39062 75.22396Q371.84375 75.22396 371.35938 75.020836Q370.89062 74.802086 370.65625 74.489586Q370.42188 74.16146 370.32812 73.69271Q370.26562 73.395836 370.26562 72.708336L370.26562 68.864586L371.32812 68.864586L371.32812 72.31771Q371.32812 73.13021 371.39062 73.427086Q371.48438 73.833336 371.79688 74.083336Q372.125 74.31771 372.60938 74.31771Q373.07812 74.31771 373.48438 74.083336Q373.90625 73.833336 374.07812 73.41146Q374.26562 72.989586 374.26562 72.19271L374.26562 68.864586L375.3125 68.864586L375.3125 75.083336L374.375 75.083336ZM377.26562 75.083336L377.26562 66.489586L378.32812 66.489586L378.32812 75.083336L377.26562 75.083336ZM384.35938 74.31771Q383.76562 74.81771 383.21875 75.020836Q382.6875 75.22396 382.0625 75.22396Q381.03125 75.22396 380.48438 74.72396Q379.9375 74.22396 379.9375 73.44271Q379.9375 72.989586 380.14062 72.614586Q380.34375 72.22396 380.6875 72.00521Q381.03125 71.770836 381.45312 71.66146Q381.75 71.56771 382.39062 71.489586Q383.65625 71.34896 384.26562 71.13021Q384.26562 70.91146 384.26562 70.864586Q384.26562 70.208336 383.96875 69.94271Q383.5625 69.59896 382.76562 69.59896Q382.03125 69.59896 381.67188 69.864586Q381.3125 70.114586 381.14062 70.770836L380.10938 70.63021Q380.25 69.97396 380.57812 69.56771Q380.90625 69.16146 381.51562 68.94271Q382.125 68.72396 382.92188 68.72396Q383.71875 68.72396 384.21875 68.91146Q384.71875 69.09896 384.95312 69.38021Q385.1875 69.66146 385.28125 70.09896Q385.32812 70.364586 385.32812 71.06771L385.32812 72.47396Q385.32812 73.94271 385.39062 74.333336Q385.46875 74.72396 385.67188 75.083336L384.5625 75.083336Q384.40625 74.75521 384.35938 74.31771ZM384.26562 71.958336Q383.6875 72.19271 382.54688 72.364586Q381.89062 72.458336 381.625 72.583336Q381.35938 72.69271 381.20312 72.91146Q381.0625 73.13021 381.0625 73.41146Q381.0625 73.833336 381.375 74.114586Q381.70312 74.395836 382.3125 74.395836Q382.92188 74.395836 383.39062 74.13021Q383.875 73.864586 384.09375 73.395836Q384.26562 73.03646 384.26562 72.34896L384.26562 71.958336ZM387.28125 75.083336L387.28125 68.864586L388.23438 68.864586L388.23438 69.802086Q388.59375 69.145836 388.89062 68.94271Q389.20312 68.72396 389.57812 68.72396Q390.10938 68.72396 390.65625 69.052086L390.29688 70.03646Q389.90625 69.802086 389.53125 69.802086Q389.17188 69.802086 388.89062 70.020836Q388.625 70.22396 388.51562 70.59896Q388.32812 71.16146 388.32812 71.81771L388.32812 75.083336L387.28125 75.083336Z" fill-rule="nonzero"/><path stroke="#ea4335" stroke-width="4.0" stroke-linecap="butt" d="M406.5 71.083336L418.5 71.083336" fill-rule="nonzero"/><path fill="#1a1a1a" d="M432.54688 74.06771L432.54688 75.083336L426.85938 75.083336Q426.85938 74.708336 426.98438 74.34896Q427.20312 73.770836 427.67188 73.208336Q428.15625 72.645836 429.0625 71.91146Q430.46875 70.75521 430.95312 70.083336Q431.45312 69.41146 431.45312 68.81771Q431.45312 68.19271 431.0 67.770836Q430.54688 67.333336 429.82812 67.333336Q429.0625 67.333336 428.60938 67.78646Q428.15625 68.239586 428.14062 69.052086L427.0625 68.94271Q427.17188 67.72396 427.89062 67.09896Q428.625 66.458336 429.85938 66.458336Q431.09375 66.458336 431.8125 67.145836Q432.53125 67.833336 432.53125 68.84896Q432.53125 69.364586 432.3125 69.864586Q432.10938 70.34896 431.60938 70.91146Q431.125 71.458336 430.0 72.41146Q429.04688 73.208336 428.76562 73.50521Q428.5 73.78646 428.32812 74.06771L432.54688 74.06771ZM439.60938 75.083336L439.60938 67.50521L436.78125 67.50521L436.78125 66.489586L443.59375 66.489586L443.59375 67.50521L440.75 67.50521L440.75 75.083336L439.60938 75.083336ZM444.29688 75.083336L444.29688 66.489586L445.34375 66.489586L445.34375 69.56771Q446.07812 68.72396 447.20312 68.72396Q447.90625 68.72396 448.40625 69.00521Q448.92188 69.270836 449.14062 69.75521Q449.35938 70.22396 449.35938 71.145836L449.35938 75.083336L448.3125 75.083336L448.3125 71.145836Q448.3125 70.34896 447.96875 69.989586Q447.625 69.63021 447.0 69.63021Q446.53125 69.63021 446.10938 69.88021Q445.70312 70.114586 445.51562 70.53646Q445.34375 70.94271 445.34375 71.677086L445.34375 75.083336L444.29688 75.083336ZM451.28125 75.083336L451.28125 68.864586L452.23438 68.864586L452.23438 69.802086Q452.59375 69.145836 452.89062 68.94271Q453.20312 68.72396 453.57812 68.72396Q454.10938 68.72396 454.65625 69.052086L454.29688 70.03646Q453.90625 69.802086 453.53125 69.802086Q453.17188 69.802086 452.89062 70.020836Q452.625 70.22396 452.51562 70.59896Q452.32812 71.16146 452.32812 71.81771L452.32812 75.083336L451.28125 75.083336ZM459.54688 73.083336L460.64062 73.208336Q460.39062 74.16146 459.6875 74.69271Q458.98438 75.22396 457.90625 75.22396Q456.54688 75.22396 455.73438 74.38021Q454.9375 73.53646 454.9375 72.020836Q454.9375 70.458336 455.75 69.59896Q456.5625 68.72396 457.84375 68.72396Q459.09375 68.72396 459.875 69.56771Q460.67188 70.41146 460.67188 71.958336Q460.67188 72.052086 460.67188 72.239586L456.03125 72.239586Q456.09375 73.270836 456.60938 73.81771Q457.125 74.34896 457.90625 74.34896Q458.48438 74.34896 458.89062 74.052086Q459.3125 73.739586 459.54688 73.083336ZM456.09375 71.38021L459.5625 71.38021Q459.5 70.583336 459.17188 70.19271Q458.65625 69.583336 457.85938 69.583336Q457.125 69.583336 456.625 70.06771Q456.14062 70.552086 456.09375 71.38021ZM466.35938 74.31771Q465.76562 74.81771 465.21875 75.020836Q464.6875 75.22396 464.0625 75.22396Q463.03125 75.22396 462.48438 74.72396Q461.9375 74.22396 461.9375 73.44271Q461.9375 72.989586 462.14062 72.614586Q462.34375 72.22396 462.6875 72.00521Q463.03125 71.770836 463.45312 71.66146Q463.75 71.56771 464.39062 71.489586Q465.65625 71.34896 466.26562 71.13021Q466.26562 70.91146 466.26562 70.864586Q466.26562 70.208336 465.96875 69.94271Q465.5625 69.59896 464.76562 69.59896Q464.03125 69.59896 463.67188 69.864586Q463.3125 70.114586 463.14062 70.770836L462.10938 70.63021Q462.25 69.97396 462.57812 69.56771Q462.90625 69.16146 463.51562 68.94271Q464.125 68.72396 464.92188 68.72396Q465.71875 68.72396 466.21875 68.91146Q466.71875 69.09896 466.95312 69.38021Q467.1875 69.66146 467.28125 70.09896Q467.32812 70.364586 467.32812 71.06771L467.32812 72.47396Q467.32812 73.94271 467.39062 74.333336Q467.46875 74.72396 467.67188 75.083336L466.5625 75.083336Q466.40625 74.75521 466.35938 74.31771ZM466.26562 71.958336Q465.6875 72.19271 464.54688 72.364586Q463.89062 72.458336 463.625 72.583336Q463.35938 72.69271 463.20312 72.91146Q463.0625 73.13021 463.0625 73.41146Q463.0625 73.833336 463.375 74.114586Q463.70312 74.395836 464.3125 74.395836Q464.92188 74.395836 465.39062 74.13021Q465.875 73.864586 466.09375 73.395836Q466.26562 73.03646 466.26562 72.34896L466.26562 71.958336ZM473.32812 75.083336L473.32812 74.302086Q472.73438 75.22396 471.59375 75.22396Q470.84375 75.22396 470.21875 74.81771Q469.59375 74.395836 469.25 73.66146Q468.90625 72.927086 468.90625 71.97396Q468.90625 71.052086 469.21875 70.28646Q469.53125 69.520836 470.15625 69.13021Q470.78125 68.72396 471.54688 68.72396Q472.10938 68.72396 472.54688 68.958336Q472.98438 69.19271 473.26562 69.56771L473.26562 66.489586L474.3125 66.489586L474.3125 75.083336L473.32812 75.083336ZM470.0 71.97396Q470.0 73.177086 470.5 73.770836Q471.0 74.34896 471.6875 74.34896Q472.375 74.34896 472.85938 73.78646Q473.34375 73.22396 473.34375 72.06771Q473.34375 70.78646 472.84375 70.19271Q472.35938 69.59896 471.64062 69.59896Q470.9375 69.59896 470.46875 70.177086Q470.0 70.739586 470.0 71.97396ZM475.875 73.22396L476.90625 73.06771Q477.0 73.69271 477.39062 74.020836Q477.79688 74.34896 478.53125 74.34896Q479.25 74.34896 479.59375 74.06771Q479.95312 73.770836 479.95312 73.364586Q479.95312 73.00521 479.64062 72.802086Q479.42188 72.66146 478.5625 72.44271Q477.40625 72.145836 476.95312 71.94271Q476.51562 71.72396 476.28125 71.34896Q476.04688 70.97396 476.04688 70.50521Q476.04688 70.09896 476.23438 69.739586Q476.42188 69.38021 476.75 69.145836Q477.0 68.97396 477.42188 68.84896Q477.84375 68.72396 478.34375 68.72396Q479.0625 68.72396 479.60938 68.94271Q480.17188 69.145836 480.4375 69.50521Q480.70312 69.864586 480.79688 70.458336L479.76562 70.59896Q479.70312 70.13021 479.35938 69.864586Q479.03125 69.583336 478.40625 69.583336Q477.6875 69.583336 477.375 69.833336Q477.0625 70.06771 477.0625 70.395836Q477.0625 70.59896 477.1875 70.75521Q477.32812 70.927086 477.59375 71.03646Q477.75 71.09896 478.53125 71.302086Q479.65625 71.614586 480.09375 71.802086Q480.53125 71.989586 480.78125 72.34896Q481.03125 72.708336 481.03125 73.25521Q481.03125 73.78646 480.71875 74.25521Q480.42188 74.708336 479.84375 74.97396Q479.26562 75.22396 478.53125 75.22396Q477.3125 75.22396 476.67188 74.72396Q476.04688 74.208336 475.875 73.22396Z" fill-rule="nonzero"/><path stroke="#fbbc04" stroke-width="4.0" stroke-linecap="butt" d="M498.5 71.083336L510.5 71.083336" fill-rule="nonzero"/><path fill="#1a1a1a" d="M522.375 75.083336L522.375 73.020836L518.65625 73.020836L518.65625 72.052086L522.5781 66.489586L523.4375 66.489586L523.4375 72.052086L524.59375 72.052086L524.59375 73.020836L523.4375 73.020836L523.4375 75.083336L522.375 75.083336ZM522.375 72.052086L522.375 68.19271L519.6875 72.052086L522.375 72.052086ZM531.6094 75.083336L531.6094 67.50521L528.78125 67.50521L528.78125 66.489586L535.59375 66.489586L535.59375 67.50521L532.75 67.50521L532.75 75.083336L531.6094 75.083336ZM536.2969 75.083336L536.2969 66.489586L537.34375 66.489586L537.34375 69.56771Q538.0781 68.72396 539.2031 68.72396Q539.90625 68.72396 540.40625 69.00521Q540.9219 69.270836 541.1406 69.75521Q541.3594 70.22396 541.3594 71.145836L541.3594 75.083336L540.3125 75.083336L540.3125 71.145836Q540.3125 70.34896 539.96875 69.989586Q539.625 69.63021 539.0 69.63021Q538.53125 69.63021 538.1094 69.88021Q537.7031 70.114586 537.5156 70.53646Q537.34375 70.94271 537.34375 71.677086L537.34375 75.083336L536.2969 75.083336ZM543.28125 75.083336L543.28125 68.864586L544.2344 68.864586L544.2344 69.802086Q544.59375 69.145836 544.8906 68.94271Q545.2031 68.72396 545.5781 68.72396Q546.1094 68.72396 546.65625 69.052086L546.2969 70.03646Q545.90625 69.802086 545.53125 69.802086Q545.1719 69.802086 544.8906 70.020836Q544.625 70.22396 544.5156 70.59896Q544.3281 71.16146 544.3281 71.81771L544.3281 75.083336L543.28125 75.083336ZM551.5469 73.083336L552.6406 73.208336Q552.3906 74.16146 551.6875 74.69271Q550.9844 75.22396 549.90625 75.22396Q548.5469 75.22396 547.7344 74.38021Q546.9375 73.53646 546.9375 72.020836Q546.9375 70.458336 547.75 69.59896Q548.5625 68.72396 549.84375 68.72396Q551.09375 68.72396 551.875 69.56771Q552.6719 70.41146 552.6719 71.958336Q552.6719 72.052086 552.6719 72.239586L548.03125 72.239586Q548.09375 73.270836 548.6094 73.81771Q549.125 74.34896 549.90625 74.34896Q550.4844 74.34896 550.8906 74.052086Q551.3125 73.739586 551.5469 73.083336ZM548.09375 71.38021L551.5625 71.38021Q551.5 70.583336 551.1719 70.19271Q550.65625 69.583336 549.8594 69.583336Q549.125 69.583336 548.625 70.06771Q548.1406 70.552086 548.09375 71.38021ZM558.3594 74.31771Q557.7656 74.81771 557.21875 75.020836Q556.6875 75.22396 556.0625 75.22396Q555.03125 75.22396 554.4844 74.72396Q553.9375 74.22396 553.9375 73.44271Q553.9375 72.989586 554.1406 72.614586Q554.34375 72.22396 554.6875 72.00521Q555.03125 71.770836 555.4531 71.66146Q555.75 71.56771 556.3906 71.489586Q557.65625 71.34896 558.2656 71.13021Q558.2656 70.91146 558.2656 70.864586Q558.2656 70.208336 557.96875 69.94271Q557.5625 69.59896 556.7656 69.59896Q556.03125 69.59896 555.6719 69.864586Q555.3125 70.114586 555.1406 70.770836L554.1094 70.63021Q554.25 69.97396 554.5781 69.56771Q554.90625 69.16146 555.5156 68.94271Q556.125 68.72396 556.9219 68.72396Q557.71875 68.72396 558.21875 68.91146Q558.71875 69.09896 558.9531 69.38021Q559.1875 69.66146 559.28125 70.09896Q559.3281 70.364586 559.3281 71.06771L559.3281 72.47396Q559.3281 73.94271 559.3906 74.333336Q559.46875 74.72396 559.6719 75.083336L558.5625 75.083336Q558.40625 74.75521 558.3594 74.31771ZM558.2656 71.958336Q557.6875 72.19271 556.5469 72.364586Q555.8906 72.458336 555.625 72.583336Q555.3594 72.69271 555.2031 72.91146Q555.0625 73.13021 555.0625 73.41146Q555.0625 73.833336 555.375 74.114586Q555.7031 74.395836 556.3125 74.395836Q556.9219 74.395836 557.3906 74.13021Q557.875 73.864586 558.09375 73.395836Q558.2656 73.03646 558.2656 72.34896L558.2656 71.958336ZM565.3281 75.083336L565.3281 74.302086Q564.7344 75.22396 563.59375 75.22396Q562.84375 75.22396 562.21875 74.81771Q561.59375 74.395836 561.25 73.66146Q560.90625 72.927086 560.90625 71.97396Q560.90625 71.052086 561.21875 70.28646Q561.53125 69.520836 562.15625 69.13021Q562.78125 68.72396 563.5469 68.72396Q564.1094 68.72396 564.5469 68.958336Q564.9844 69.19271 565.2656 69.56771L565.2656 66.489586L566.3125 66.489586L566.3125 75.083336L565.3281 75.083336ZM562.0 71.97396Q562.0 73.177086 562.5 73.770836Q563.0 74.34896 563.6875 74.34896Q564.375 74.34896 564.8594 73.78646Q565.34375 73.22396 565.34375 72.06771Q565.34375 70.78646 564.84375 70.19271Q564.3594 69.59896 563.6406 69.59896Q562.9375 69.59896 562.46875 70.177086Q562.0 70.739586 562.0 71.97396ZM567.875 73.22396L568.90625 73.06771Q569.0 73.69271 569.3906 74.020836Q569.7969 74.34896 570.53125 74.34896Q571.25 74.34896 571.59375 74.06771Q571.9531 73.770836 571.9531 73.364586Q571.9531 73.00521 571.6406 72.802086Q571.4219 72.66146 570.5625 72.44271Q569.40625 72.145836 568.9531 71.94271Q568.5156 71.72396 568.28125 71.34896Q568.0469 70.97396 568.0469 70.50521Q568.0469 70.09896 568.2344 69.739586Q568.4219 69.38021 568.75 69.145836Q569.0 68.97396 569.4219 68.84896Q569.84375 68.72396 570.34375 68.72396Q571.0625 68.72396 571.6094 68.94271Q572.1719 69.145836 572.4375 69.50521Q572.7031 69.864586 572.7969 70.458336L571.7656 70.59896Q571.7031 70.13021 571.3594 69.864586Q571.03125 69.583336 570.40625 69.583336Q569.6875 69.583336 569.375 69.833336Q569.0625 70.06771 569.0625 70.395836Q569.0625 70.59896 569.1875 70.75521Q569.3281 70.927086 569.59375 71.03646Q569.75 71.09896 570.53125 71.302086Q571.65625 71.614586 572.09375 71.802086Q572.53125 71.989586 572.78125 72.34896Q573.03125 72.708336 573.03125 73.25521Q573.03125 73.78646 572.71875 74.25521Q572.4219 74.708336 571.84375 74.97396Q571.2656 75.22396 570.53125 75.22396Q569.3125 75.22396 568.6719 74.72396Q568.0469 74.208336 567.875 73.22396Z" fill-rule="nonzero"/><path fill="#757575" d="M25.596874 43.05L25.596874 28.7375L30.9875 28.7375Q32.425 28.7375 33.175 28.8625Q34.221874 29.05 34.940624 29.55Q35.659374 30.034374 36.08125 30.925Q36.51875 31.815624 36.51875 32.878124Q36.51875 34.70625 35.346874 35.971874Q34.190624 37.221874 31.159374 37.221874L27.4875 37.221874L27.4875 43.05L25.596874 43.05ZM27.4875 35.534374L31.190624 35.534374Q33.01875 35.534374 33.784374 34.8625Q34.565624 34.175 34.565624 32.925Q34.565624 32.034374 34.1125 31.39375Q33.659374 30.753124 32.925 30.55Q32.440624 30.425 31.14375 30.425L27.4875 30.425L27.4875 35.534374ZM45.14375 41.76875Q44.159374 42.596874 43.253124 42.940624Q42.346874 43.284374 41.315624 43.284374Q39.6125 43.284374 38.690624 42.45625Q37.76875 41.6125 37.76875 40.315624Q37.76875 39.55 38.1125 38.925Q38.471874 38.3 39.034374 37.925Q39.596874 37.534374 40.3 37.33125Q40.815624 37.20625 41.8625 37.065624Q43.9875 36.815624 44.9875 36.471874Q45.003124 36.1125 45.003124 36.003124Q45.003124 34.940624 44.503124 34.4875Q43.83125 33.89375 42.503124 33.89375Q41.253124 33.89375 40.659374 34.33125Q40.08125 34.76875 39.8 35.878124L38.08125 35.64375Q38.315624 34.534374 38.846874 33.8625Q39.378124 33.175 40.39375 32.815624Q41.409374 32.440624 42.753124 32.440624Q44.08125 32.440624 44.909374 32.753124Q45.7375 33.065624 46.128124 33.55Q46.51875 34.01875 46.675 34.7375Q46.76875 35.190624 46.76875 36.3625L46.76875 38.70625Q46.76875 41.159374 46.878124 41.815624Q46.9875 42.45625 47.33125 43.05L45.4875 43.05Q45.221874 42.503124 45.14375 41.76875ZM44.9875 37.846874Q44.034374 38.2375 42.1125 38.503124Q41.034374 38.659374 40.58125 38.8625Q40.14375 39.05 39.89375 39.425Q39.64375 39.8 39.64375 40.26875Q39.64375 40.971874 40.175 41.440624Q40.70625 41.909374 41.7375 41.909374Q42.753124 41.909374 43.534374 41.471874Q44.33125 41.01875 44.70625 40.253124Q44.9875 39.64375 44.9875 38.4875L44.9875 37.846874ZM49.346874 43.05L49.346874 32.675L50.925 32.675L50.925 34.253124Q51.534374 33.14375 52.05 32.8Q52.565624 32.440624 53.175 32.440624Q54.065624 32.440624 54.9875 33.003124L54.378124 34.64375Q53.7375 34.253124 53.096874 34.253124Q52.51875 34.253124 52.05 34.6125Q51.596874 34.95625 51.39375 35.565624Q51.1125 36.503124 51.1125 37.6125L51.1125 43.05L49.346874 43.05ZM60.20625 41.471874L60.45625 43.034374Q59.721874 43.190624 59.128124 43.190624Q58.175 43.190624 57.64375 42.89375Q57.128124 42.58125 56.909374 42.096874Q56.690624 41.596874 56.690624 40.01875L56.690624 34.05L55.409374 34.05L55.409374 32.675L56.690624 32.675L56.690624 30.1125L58.440624 29.05L58.440624 32.675L60.20625 32.675L60.20625 34.05L58.440624 34.05L58.440624 40.1125Q58.440624 40.8625 58.534374 41.08125Q58.628124 41.284374 58.83125 41.425Q59.05 41.55 59.440624 41.55Q59.721874 41.55 60.20625 41.471874ZM68.90938 43.05L68.90938 28.7375L70.81563 28.7375L70.81563 43.05L68.90938 43.05ZM74.90938 43.05L74.90938 28.7375L76.81563 28.7375L76.81563 43.05L74.90938 43.05ZM90.2375 43.05L90.2375 30.425L85.51875 30.425L85.51875 28.7375L96.8625 28.7375L96.8625 30.425L92.12813 30.425L92.12813 43.05L90.2375 43.05ZM98.3625 43.05L98.3625 28.7375L100.12813 28.7375L100.12813 33.8625Q101.3625 32.440624 103.2375 32.440624Q104.37813 32.440624 105.22188 32.89375Q106.08125 33.346874 106.44063 34.159374Q106.81563 34.95625 106.81563 36.471874L106.81563 43.05L105.06563 43.05L105.06563 36.471874Q105.06563 35.159374 104.4875 34.565624Q103.90938 33.95625 102.87813 33.95625Q102.09688 33.95625 101.39375 34.3625Q100.70625 34.76875 100.40938 35.471874Q100.12813 36.159374 100.12813 37.378124L100.12813 43.05L98.3625 43.05ZM108.34688 43.05L108.34688 32.675L109.925 32.675L109.925 34.253124Q110.53438 33.14375 111.05 32.8Q111.56563 32.440624 112.175 32.440624Q113.06563 32.440624 113.9875 33.003124L113.37813 34.64375Q112.7375 34.253124 112.09688 34.253124Q111.51875 34.253124 111.05 34.6125Q110.59688 34.95625 110.39375 35.565624Q110.1125 36.503124 110.1125 37.6125L110.1125 43.05L108.34688 43.05ZM122.47188 39.70625L124.28438 39.940624Q123.8625 41.51875 122.69063 42.409374Q121.53438 43.284374 119.72188 43.284374Q117.45625 43.284374 116.1125 41.89375Q114.78438 40.4875 114.78438 37.95625Q114.78438 35.33125 116.12813 33.89375Q117.47188 32.440624 119.62813 32.440624Q121.70625 32.440624 123.01875 33.8625Q124.34688 35.26875 124.34688 37.846874Q124.34688 38.003124 124.33125 38.315624L116.59688 38.315624Q116.69063 40.01875 117.56563 40.925Q118.44063 41.83125 119.7375 41.83125Q120.70625 41.83125 121.37813 41.33125Q122.06563 40.815624 122.47188 39.70625ZM116.69063 36.8625L122.4875 36.8625Q122.37813 35.565624 121.83125 34.909374Q120.9875 33.89375 119.64375 33.89375Q118.44063 33.89375 117.6125 34.70625Q116.78438 35.503124 116.69063 36.8625ZM133.14375 41.76875Q132.15938 42.596874 131.25313 42.940624Q130.34688 43.284374 129.31563 43.284374Q127.6125 43.284374 126.69063 42.45625Q125.76875 41.6125 125.76875 40.315624Q125.76875 39.55 126.1125 38.925Q126.47188 38.3 127.03438 37.925Q127.59688 37.534374 128.3 37.33125Q128.81563 37.20625 129.8625 37.065624Q131.9875 36.815624 132.9875 36.471874Q133.00313 36.1125 133.00313 36.003124Q133.00313 34.940624 132.50313 34.4875Q131.83125 33.89375 130.50313 33.89375Q129.25313 33.89375 128.65938 34.33125Q128.08125 34.76875 127.8 35.878124L126.08125 35.64375Q126.31563 34.534374 126.84688 33.8625Q127.37813 33.175 128.39375 32.815624Q129.40938 32.440624 130.75313 32.440624Q132.08125 32.440624 132.90938 32.753124Q133.7375 33.065624 134.12813 33.55Q134.51875 34.01875 134.675 34.7375Q134.76875 35.190624 134.76875 36.3625L134.76875 38.70625Q134.76875 41.159374 134.87813 41.815624Q134.9875 42.45625 135.33125 43.05L133.4875 43.05Q133.22188 42.503124 133.14375 41.76875ZM132.9875 37.846874Q132.03438 38.2375 130.1125 38.503124Q129.03438 38.659374 128.58125 38.8625Q128.14375 39.05 127.89375 39.425Q127.64375 39.8 127.64375 40.26875Q127.64375 40.971874 128.175 41.440624Q128.70625 41.909374 129.7375 41.909374Q130.75313 41.909374 131.53438 41.471874Q132.33125 41.01875 132.70625 40.253124Q132.9875 39.64375 132.9875 38.4875L132.9875 37.846874ZM144.09688 43.05L144.09688 41.7375Q143.1125 43.284374 141.19063 43.284374Q139.95625 43.284374 138.90938 42.596874Q137.87813 41.909374 137.3 40.690624Q136.7375 39.471874 136.7375 37.878124Q136.7375 36.315624 137.25313 35.05Q137.76875 33.784374 138.8 33.1125Q139.84688 32.440624 141.1125 32.440624Q142.05 32.440624 142.78438 32.846874Q143.51875 33.2375 143.9875 33.8625L143.9875 28.7375L145.72188 28.7375L145.72188 43.05L144.09688 43.05ZM138.53438 37.878124Q138.53438 39.8625 139.37813 40.846874Q140.22188 41.83125 141.3625 41.83125Q142.51875 41.83125 143.31563 40.89375Q144.12813 39.95625 144.12813 38.01875Q144.12813 35.89375 143.3 34.89375Q142.4875 33.89375 141.28438 33.89375Q140.1125 33.89375 139.31563 34.8625Q138.53438 35.815624 138.53438 37.878124ZM164.81563 38.034374L166.70625 38.503124Q166.1125 40.846874 164.56563 42.08125Q163.01875 43.3 160.76875 43.3Q158.45625 43.3 157.00313 42.3625Q155.56563 41.409374 154.8 39.628124Q154.05 37.83125 154.05 35.784374Q154.05 33.55 154.89375 31.89375Q155.75313 30.221874 157.33125 29.3625Q158.90938 28.4875 160.8 28.4875Q162.95625 28.4875 164.40938 29.58125Q165.87813 30.675 166.45625 32.659374L164.59688 33.096874Q164.09688 31.534374 163.14375 30.83125Q162.20625 30.1125 160.76875 30.1125Q159.1125 30.1125 158.00313 30.909374Q156.89375 31.690624 156.44063 33.034374Q156.00313 34.3625 156.00313 35.76875Q156.00313 37.596874 156.53438 38.971874Q157.06563 40.33125 158.19063 41.003124Q159.31563 41.675 160.6125 41.675Q162.20625 41.675 163.31563 40.753124Q164.425 39.83125 164.81563 38.034374ZM167.72188 37.8625Q167.72188 34.9875 169.31563 33.596874Q170.65938 32.440624 172.58125 32.440624Q174.72188 32.440624 176.06563 33.846874Q177.425 35.253124 177.425 37.721874Q177.425 39.721874 176.83125 40.878124Q176.2375 42.01875 175.08125 42.659374Q173.94063 43.284374 172.58125 43.284374Q170.39375 43.284374 169.05 41.89375Q167.72188 40.4875 167.72188 37.8625ZM169.51875 37.8625Q169.51875 39.8625 170.37813 40.846874Q171.25313 41.83125 172.58125 41.83125Q173.89375 41.83125 174.75313 40.846874Q175.62813 39.846874 175.62813 37.8Q175.62813 35.878124 174.75313 34.89375Q173.87813 33.89375 172.58125 33.89375Q171.25313 33.89375 170.37813 34.89375Q169.51875 35.878124 169.51875 37.8625ZM186.15938 43.05L186.15938 41.51875Q184.95625 43.284374 182.87813 43.284374Q181.95625 43.284374 181.15938 42.940624Q180.3625 42.58125 179.97188 42.05Q179.59688 41.51875 179.44063 40.7375Q179.33125 40.221874 179.33125 39.096874L179.33125 32.675L181.08125 32.675L181.08125 38.425Q181.08125 39.8 181.19063 40.284374Q181.3625 40.971874 181.89375 41.378124Q182.44063 41.76875 183.22188 41.76875Q184.01875 41.76875 184.70625 41.3625Q185.40938 40.95625 185.69063 40.26875Q185.9875 39.565624 185.9875 38.2375L185.9875 32.675L187.7375 32.675L187.7375 43.05L186.15938 43.05ZM189.3625 43.05L189.3625 32.675L190.95625 32.675L190.95625 34.159374Q192.09688 32.440624 194.25313 32.440624Q195.19063 32.440624 195.97188 32.784374Q196.76875 33.1125 197.15938 33.659374Q197.55 34.20625 197.70625 34.95625Q197.8 35.45625 197.8 36.675L197.8 43.05L196.03438 43.05L196.03438 36.7375Q196.03438 35.659374 195.83125 35.128124Q195.62813 34.596874 195.09688 34.284374Q194.58125 33.971874 193.87813 33.971874Q192.75313 33.971874 191.94063 34.690624Q191.12813 35.39375 191.12813 37.378124L191.12813 43.05L189.3625 43.05ZM203.20625 41.471874L203.45625 43.034374Q202.72188 43.190624 202.12813 43.190624Q201.175 43.190624 200.64375 42.89375Q200.12813 42.58125 199.90938 42.096874Q199.69063 41.596874 199.69063 40.01875L199.69063 34.05L198.40938 34.05L198.40938 32.675L199.69063 32.675L199.69063 30.1125L201.44063 29.05L201.44063 32.675L203.20625 32.675L203.20625 34.05L201.44063 34.05L201.44063 40.1125Q201.44063 40.8625 201.53438 41.08125Q201.62813 41.284374 201.83125 41.425Q202.05 41.55 202.44063 41.55Q202.72188 41.55 203.20625 41.471874ZM204.65938 39.95625L206.40938 39.675Q206.55 40.721874 207.22188 41.284374Q207.89375 41.83125 209.09688 41.83125Q210.3 41.83125 210.87813 41.346874Q211.47188 40.846874 211.47188 40.190624Q211.47188 39.596874 210.95625 39.253124Q210.59688 39.01875 209.15938 38.659374Q207.22188 38.159374 206.47188 37.815624Q205.7375 37.45625 205.34688 36.83125Q204.95625 36.190624 204.95625 35.425Q204.95625 34.7375 205.26875 34.14375Q205.59688 33.55 206.14375 33.159374Q206.55 32.8625 207.25313 32.659374Q207.97188 32.440624 208.78438 32.440624Q210.00313 32.440624 210.925 32.8Q211.84688 33.14375 212.28438 33.753124Q212.72188 34.346874 212.89375 35.346874L211.175 35.58125Q211.05 34.784374 210.4875 34.346874Q209.925 33.89375 208.90938 33.89375Q207.69063 33.89375 207.175 34.3Q206.65938 34.690624 206.65938 35.221874Q206.65938 35.565624 206.87813 35.846874Q207.08125 36.128124 207.55 36.315624Q207.81563 36.409374 209.09688 36.753124Q210.97188 37.253124 211.70625 37.58125Q212.44063 37.89375 212.8625 38.503124Q213.28438 39.096874 213.28438 40.003124Q213.28438 40.878124 212.76875 41.659374Q212.25313 42.440624 211.28438 42.8625Q210.31563 43.284374 209.09688 43.284374Q207.08125 43.284374 206.01875 42.440624Q204.95625 41.596874 204.65938 39.95625Z" fill-rule="nonzero"/></svg>